<svg width="956" height="811" viewBox="0 0 956 811" fill="none" xmlns="http://www.w3.org/2000/svg">
<path d="M175.825 292.174L321.015 208.349L466.205 292.174V459.826L321.015 543.651L175.825 459.826V292.174Z" stroke="#0A1B2D" stroke-opacity="0.19" stroke-width="2"/>
<path d="M634.631 558.368L779.821 474.543L925.011 558.368V726.02L779.821 809.845L634.631 726.02V558.368Z" stroke="#0A1B2D" stroke-opacity="0.19" stroke-width="2"/>
<path d="M24.3321 25.9803L169.522 -57.8453L314.713 25.9803V193.632L169.522 277.457L24.3321 193.632V25.9803Z" stroke="#0A1B2D" stroke-opacity="0.19" stroke-width="2"/>
<path d="M483.138 292.174L628.328 208.349L773.519 292.174V459.826L628.328 543.651L483.138 459.826V292.174Z" stroke="#0A1B2D" stroke-opacity="0.19" stroke-width="2"/>
<path d="M329.481 25.9803L474.672 -57.8453L619.862 25.9803V193.632L474.672 277.457L329.481 193.632V25.9803Z" stroke="#0A1B2D" stroke-opacity="0.19" stroke-width="2"/>
<path d="M788.287 292.174L933.478 208.349L1078.67 292.174V459.826L933.478 543.651L788.287 459.826V292.174Z" stroke="#0A1B2D" stroke-opacity="0.19" stroke-width="2"/>
</svg>
