<svg width="285" height="47" viewBox="0 0 285 47" fill="none" xmlns="http://www.w3.org/2000/svg">
<path d="M283.818 46.9338H279.351C278.694 46.9338 278.169 46.4057 278.169 45.7456V37.8243C278.169 37.4942 278.038 37.1641 277.775 36.9661L267.594 27.4605C267.397 27.2625 267.068 27.1304 266.806 27.1304H248.217C247.56 27.1304 247.035 26.6023 247.035 25.9422V21.3875C247.035 20.7273 247.56 20.1993 248.217 20.1993H276.987C277.249 20.1993 277.446 20.1332 277.643 20.0012C277.972 19.8032 278.169 19.4071 278.169 19.011V8.38324C278.169 7.98717 277.972 7.65712 277.709 7.45908L277.643 7.39307C277.446 7.19504 277.184 7.12903 276.921 7.12903H255.048C254.392 7.12903 253.866 6.60094 253.866 5.94082V1.32004C253.866 0.659926 254.392 0.131836 255.048 0.131836H279.68C280.008 0.131836 280.336 0.263858 280.534 0.461892L284.672 4.6206C284.869 4.81863 285 5.14869 285 5.47875V21.9155C285 22.2456 284.869 22.5096 284.672 22.7737L280.534 26.9324C280.336 27.1304 280.008 27.2625 279.68 27.2625H277.709C277.381 27.2625 277.184 27.6585 277.446 27.9226L284.672 35.5799C284.869 35.7779 285 36.108 285 36.438V45.6796C285 46.4057 284.475 46.9338 283.818 46.9338Z" fill="#EAEAEA"/>
<path d="M116.391 46.8678H87.2275C86.899 46.8678 86.6363 46.7358 86.3736 46.5377L79.4768 39.8046C79.2798 39.6066 79.1484 39.2765 79.1484 38.9464V23.4998V8.1192C79.1484 7.78914 79.2798 7.45908 79.5425 7.26105L86.702 0.461892C86.899 0.263858 87.2275 0.131836 87.5559 0.131836H116.457C117.113 0.131836 117.639 0.659926 117.639 1.32004V8.25122C117.639 8.91133 117.113 9.43942 116.457 9.43942H111.99C111.333 9.43942 110.808 8.91133 110.808 8.25122V8.18521C110.808 7.52509 110.282 6.99701 109.625 6.99701H90.3803C90.0518 6.99701 89.7891 7.12903 89.5264 7.32706L86.4393 10.3636C86.2422 10.5616 86.1108 10.8917 86.1108 11.2217V23.4998V35.7779C86.1108 36.108 86.2422 36.438 86.4393 36.6361L89.5264 39.6726C89.7234 39.8706 90.0518 40.0026 90.3803 40.0026H109.625C110.282 40.0026 110.808 39.4745 110.808 38.8144C110.808 38.1543 111.333 37.6262 111.99 37.6262H116.457C117.113 37.6262 117.639 38.1543 117.639 38.8144V45.6796C117.573 46.3397 117.048 46.8678 116.391 46.8678Z" fill="#EAEAEA"/>
<path d="M225.228 39.8046L222.141 36.7681C221.878 36.5701 221.813 36.24 221.813 35.91V28.2527C221.813 27.5926 222.338 27.0645 222.995 27.0645H235.278C235.935 27.0645 236.46 26.5364 236.46 25.8763V21.3875C236.46 20.7274 235.935 20.1993 235.278 20.1993H222.995C222.338 20.1993 221.813 19.6712 221.813 19.0111V11.3538C221.813 11.0237 221.944 10.6937 222.141 10.4957L225.228 7.45914C225.425 7.26111 225.754 7.12909 226.082 7.12909H245.853C246.51 7.12909 247.035 6.601 247.035 5.94088V1.45212C247.035 0.792006 246.51 0.263916 245.853 0.263916H223.258C222.929 0.263916 222.667 0.395938 222.404 0.593972L215.244 7.39313C214.982 7.59116 214.85 7.92122 214.85 8.25128V20.1993V23.6319V27.0645V39.0125C214.85 39.3426 214.982 39.6726 215.179 39.8707L221.813 46.5378C222.01 46.7358 222.338 46.8678 222.667 46.8678L254.129 46.9999C254.786 46.9999 255.311 46.4718 255.311 45.8117V41.3229C255.311 40.6628 254.786 40.1347 254.129 40.1347H225.951C225.754 40.1347 225.491 40.0027 225.228 39.8046Z" fill="#EAEAEA"/>
<path d="M207.034 46.8679H177.739C177.411 46.8679 177.148 46.7359 176.885 46.5378L170.054 39.7387C169.857 39.5406 169.726 39.2106 169.726 38.8805V23.4999V23.4339V8.05328C169.726 7.72322 169.857 7.39317 170.054 7.19513L176.82 0.395974C177.017 0.19794 177.345 0.065918 177.673 0.065918H206.903C207.559 0.065918 208.085 0.594008 208.085 1.25412V20.5294C208.085 20.8595 207.953 21.1895 207.756 21.3876L206.246 22.9058C205.917 23.2359 205.917 23.764 206.246 24.094L207.756 25.5463C208.019 25.7443 208.15 26.0743 208.15 26.4044L208.216 45.6797C208.216 46.3398 207.691 46.8679 207.034 46.8679ZM180.826 40.0027H199.94C200.597 40.0027 201.122 39.4746 201.122 38.8145L201.254 29.3749C201.254 29.0449 201.122 28.7148 200.925 28.5168L196.919 24.4241C196.459 23.962 196.459 23.1038 196.984 22.7078L200.925 19.1432C201.188 18.9451 201.319 18.6151 201.319 18.219V8.1853C201.319 7.52519 200.794 6.9971 200.137 6.9971H180.892C180.563 6.9971 180.301 7.12912 180.038 7.32715L176.951 10.3637C176.688 10.5617 176.622 10.8918 176.622 11.2218V23.4999V35.778C176.622 36.1081 176.754 36.4381 176.951 36.6361L180.038 39.6727C180.235 39.8707 180.498 40.0027 180.826 40.0027Z" fill="#EAEAEA"/>
<path d="M155.867 1.32004V18.879C155.867 19.5391 155.341 20.0672 154.684 20.0672H147.065H140.234H132.615C131.958 20.0672 131.432 19.5391 131.432 18.879V1.32004C131.432 0.659926 130.907 0.131836 130.25 0.131836H125.718C125.061 0.131836 124.536 0.659926 124.536 1.32004V20.0672V25.7442C124.536 26.4043 125.061 26.9324 125.718 26.9324H131.432H139.052C139.708 26.9324 140.234 27.4605 140.234 28.1206V45.7456C140.234 46.4057 140.759 46.9338 141.416 46.9338H145.883C146.54 46.9338 147.065 46.4057 147.065 45.7456V28.1866C147.065 27.5265 147.59 26.9984 148.247 26.9984H155.867H161.581C162.238 26.9984 162.763 26.4703 162.763 25.8102V20.1332V1.32004C162.763 0.659926 162.238 0.131836 161.581 0.131836H157.049C156.392 0.131836 155.867 0.659926 155.867 1.32004Z" fill="#EAEAEA"/>
<path fill-rule="evenodd" clip-rule="evenodd" d="M45.4529 1.45225C45.4529 1.71629 45.5185 1.98034 45.6499 2.17837L45.7156 2.24438L51.3644 11.2219L58.5895 22.6419L58.6552 22.7079L59.115 23.434L58.6552 24.1601L58.5895 24.2261L51.3644 35.6461L45.6499 44.6236L45.5842 44.6896C45.4529 44.8876 45.3872 45.1517 45.3872 45.4157C45.3872 46.2079 46.044 46.868 46.8322 46.868H56.6847C57.2102 46.868 57.6043 46.6039 57.867 46.2079L64.5667 35.6461L71.7919 24.2261V24.1601L71.8576 24.0941C71.9232 23.9621 71.9889 23.764 72.0546 23.566V23.434V23.236C72.0546 23.0379 71.9889 22.8399 71.8576 22.7079L71.7919 22.6419V22.5758L64.6324 11.2219L57.9327 0.660112C57.67 0.264045 57.2102 0 56.7504 0H46.8979C46.1097 0 45.4529 0.660112 45.4529 1.45225Z" fill="#EA293C"/>
<path fill-rule="evenodd" clip-rule="evenodd" d="M40.2639 4.15865L40.1982 4.22466V4.29067L35.7974 11.2218L35.4033 11.882L35.3376 11.948C35.2063 12.146 35.1406 12.4101 35.1406 12.6741C35.1406 12.9381 35.2063 13.1362 35.3376 13.3342L35.469 13.5322L41.1835 22.5758L41.2491 22.6418C41.3805 22.8398 41.4462 23.1039 41.4462 23.3679C41.4462 23.632 41.3805 23.896 41.2491 24.094C41.2491 24.1601 41.1835 24.1601 41.1835 24.1601L35.469 33.2036L35.3376 33.4016C35.2063 33.5997 35.1406 33.7977 35.1406 34.0617C35.1406 34.3258 35.2063 34.5898 35.3376 34.7879L35.4033 34.8539L35.7974 35.514L40.1982 42.4452V42.5112L40.2639 42.5772C40.5266 42.9733 40.9207 43.1713 41.4462 43.1713C41.9717 43.1713 42.3658 42.9072 42.6285 42.5112L42.6942 42.4452L47.1606 35.646L54.3858 24.2261L54.4515 24.094C54.5829 23.896 54.5829 23.698 54.6485 23.4339C54.6485 23.1699 54.5829 22.9719 54.4515 22.7738L54.3858 22.6418L47.1606 11.2218L42.6942 4.22466L42.6285 4.15865C42.3658 3.76258 41.906 3.49854 41.4462 3.49854C40.9864 3.49854 40.5266 3.76258 40.2639 4.15865Z" fill="#EA293C"/>
<path fill-rule="evenodd" clip-rule="evenodd" d="M14.1876 0.59421L14.1219 0.660221L7.4879 11.222L0.262733 22.642V22.708C0.0656833 22.906 0 23.1701 0 23.4341C0 23.6981 0.0656833 23.9622 0.19705 24.1602V24.2262L7.42222 35.6462L14.1876 46.208L14.2533 46.274C14.516 46.6701 14.9101 46.8681 15.4356 46.8681H36.1258C36.914 46.8681 37.5709 46.208 37.5709 45.4158C37.5709 45.1518 37.5052 44.9538 37.3738 44.7557L37.3081 44.6237L32.8417 37.5605L32.0535 36.3723V36.3063C31.7907 35.9102 31.331 35.7122 30.8712 35.7122H20.6903L13.4651 24.2922C13.3337 24.0942 13.2024 23.8302 13.2024 23.5001C13.2024 23.2361 13.268 22.906 13.4651 22.708L20.6903 11.288H30.7398C31.1996 11.288 31.6594 11.024 31.9221 10.6939V10.6279L32.7103 9.43972L37.1768 2.37651L37.2425 2.24449C37.3738 2.04646 37.4395 1.78241 37.4395 1.58438C37.4395 0.792244 36.7827 0.132131 35.9945 0.132131H15.3699C14.9101 0.000108942 14.4503 0.264154 14.1876 0.59421Z" fill="#EA293C"/>
</svg>
