<svg width="453" height="397" viewBox="0 0 453 397" fill="none" xmlns="http://www.w3.org/2000/svg">
<path d="M431.148 110.261L431.293 110.179L431.416 110.068C432.965 108.672 435.207 107.92 437.534 107.92C444.015 107.92 449.924 114.229 450.653 122.114V229.315C450.653 234.37 448.597 238.558 445.253 241.209L343.323 314.25L343.321 314.251L233.491 393.226L233.355 393.323L233.245 393.448L233.037 393.682L232.506 393.981C231.242 394.693 229.958 395.076 228.201 395.477H226.495H226.12H224.621C223.55 395.477 221.979 394.824 220.484 393.981L219.953 393.682L219.745 393.448L219.634 393.323L219.499 393.226L109.668 314.251L109.666 314.25L7.73665 241.209C4.39232 238.558 2.33649 234.37 2.33649 229.315V122.046C2.33649 113.86 8.17567 107.92 14.7058 107.92C16.9562 107.92 18.896 108.627 20.9271 110.153L21.0059 110.212L21.0918 110.261L21.7688 110.642L107.916 172.675L107.917 172.675L217.747 251.649L217.815 251.698L217.887 251.739L218.551 252.112L225.219 257.121L226.12 257.798L227.021 257.121L233.689 252.112L234.353 251.739L234.425 251.698L234.493 251.649L344.323 172.675L344.324 172.675L430.471 110.642L431.148 110.261Z" stroke="#EAEAEA" stroke-width="3"/>
<path d="M409.735 56.7422L409.902 56.9301L410.121 57.0534L410.766 57.4172C414.092 60.0848 416.066 64.2239 415.733 68.7278L415.729 68.7831V68.8385C415.729 73.8615 413.699 78.0288 410.391 80.6821L409.746 81.0459L409.674 81.0862L409.607 81.1341L342.51 129.279L342.509 129.28L232.678 208.254L232.666 208.263L232.653 208.272L231.929 208.816H231.732L231.438 208.949C229.596 209.779 227.593 210.506 225.682 210.506C223.655 210.506 222.093 210.134 220.525 209.074L220.144 208.816H219.81L219.086 208.272L219.074 208.263L219.061 208.254L109.231 129.28L109.229 129.279L42.1316 81.1341L42.0648 81.0862L41.9933 81.0459L41.3476 80.6822C38.0401 78.0288 36.0098 73.8615 36.0098 68.8385C36.0098 64.2549 38.0248 60.0828 41.3476 57.4172L41.9933 57.0534L42.2122 56.9301L42.379 56.7422L42.6426 56.4452L109.604 8.39825L109.613 8.39159L115.915 3.79774L116.588 3.41851L116.641 3.38853L116.692 3.35431C118.313 2.25819 120.644 1.5 122.974 1.5C125.025 1.5 126.917 1.88252 128.443 2.88952L129.878 4.102L129.925 4.14195L129.975 4.17786L217.551 66.5831C217.713 66.7642 217.926 66.9937 218.154 67.1863C218.339 67.3428 218.666 67.5922 219.108 67.7212C221.143 69.0356 223.591 69.9162 226.432 69.9162C229.349 69.9162 232.267 68.9851 234.394 67.5473L234.55 67.4415L234.676 67.3003C234.682 67.2933 234.672 67.2909 234.852 67.1891L234.874 67.1772C235.049 67.0788 235.355 66.9068 235.667 66.5966L322.519 4.17431L322.566 4.13998L322.611 4.10201L323.949 2.97194C325.738 2.17758 327.669 1.5 329.515 1.5C331.789 1.5 333.78 2.2237 335.901 3.41851L336.574 3.79774L342.875 8.39161L342.881 8.39589L409.47 56.4437L409.735 56.7422Z" stroke="#EAEAEA" stroke-width="3"/>
</svg>
