<svg width="436" height="278" viewBox="0 0 436 278" fill="none" xmlns="http://www.w3.org/2000/svg">
<g clip-path="url(#clip0_185_16)">
<path fill-rule="evenodd" clip-rule="evenodd" d="M274.727 8.5432C274.727 10.1595 275.196 11.7757 276.133 12.9302L276.368 13.392L310.826 66.4983L354.66 134.151L354.895 134.613L357.708 138.769L354.895 142.925L354.66 143.387L310.826 211.04L276.368 264.146L276.133 264.608C275.196 265.993 274.727 267.379 274.727 268.995C274.727 273.613 278.477 277.538 283.4 277.538L342.94 277.538C345.987 277.538 348.566 276.153 350.206 273.844L390.759 211.04L434.594 143.387L434.828 143.156L435.062 142.694C435.531 141.771 436 140.616 436 139.693L436 138.769L436 138.538L436 137.384C435.766 136.229 435.531 135.306 435.062 134.382L434.828 133.92L434.594 133.689L390.759 66.0365L350.206 3.23256C348.566 0.923565 345.987 -0.46181 342.94 -0.46181L283.4 -0.461808C278.712 -1.5433e-05 274.727 3.92525 274.727 8.5432Z" fill="#EA293C"/>
<path fill-rule="evenodd" clip-rule="evenodd" d="M243.551 24.7061L243.316 25.1679L243.082 25.3987L216.359 66.4984L213.781 70.4236L213.546 70.8854C212.843 72.2708 212.374 73.6562 212.374 75.2725C212.374 76.6579 212.843 78.0433 213.312 79.1977L214.015 80.1213L248.707 133.689C248.942 133.92 248.942 134.151 249.176 134.382C249.88 135.537 250.348 137.153 250.348 138.769C250.348 140.385 249.88 141.771 249.176 142.925C249.176 143.156 248.942 143.387 248.707 143.618L214.015 197.648L213.312 198.571C212.609 199.726 212.374 201.111 212.374 202.497C212.374 204.113 212.843 205.729 213.546 206.884L213.781 207.346L216.359 211.271L243.082 252.601L243.316 252.832L243.551 253.294C245.191 255.603 247.77 256.988 250.583 256.988C253.63 256.988 256.209 255.603 257.849 253.294L258.084 252.832L284.806 211.502L328.641 143.849L329.11 143.156L329.11 142.925C329.813 141.771 330.047 140.616 330.047 139.231C330.047 137.846 329.578 136.46 329.11 135.306L329.11 135.075L328.641 134.382L284.806 66.7293L258.084 25.3987L257.849 24.937C256.209 22.628 253.63 21.2426 250.583 21.2426C247.77 21.0117 245.191 22.3971 243.551 24.7061Z" fill="#EA293C"/>
<path fill-rule="evenodd" clip-rule="evenodd" d="M86.0279 3.69439L85.7935 4.15619L45.4753 66.4984L1.40645 134.151L1.17204 134.382L1.17204 134.613C0.468811 135.767 -6.14653e-06 137.384 -6.07588e-06 139C-6.00523e-06 140.616 0.468811 142.002 1.17204 143.387L1.17204 143.618L1.40645 143.849L45.2409 211.502L85.5591 273.844L85.7935 274.306C87.4344 276.615 90.0129 278 92.8258 278L218 278C222.688 278 226.673 274.075 226.673 269.457C226.673 268.071 226.204 266.686 225.735 265.301L225.032 264.608L197.841 222.585L193.153 215.427L192.918 215.196C191.277 212.887 188.699 211.502 185.886 211.502L125.174 211.502L81.3398 143.849C80.4021 142.463 79.9333 140.847 79.9333 139.231C79.9333 137.615 80.4021 135.767 81.3398 134.382L125.174 66.7293L185.886 66.7293C188.933 66.7293 191.512 65.3439 192.918 63.0349L193.153 62.804L197.841 55.6462L225.032 13.6229L225.501 12.6994C226.204 11.5449 226.439 10.1595 226.439 8.54323C226.439 3.92528 222.454 2.07938e-05 217.766 2.09987e-05L93.0602 2.64498e-05C90.0129 2.6583e-05 87.4344 1.6163 86.0279 3.69439Z" fill="#EA293C"/>
</g>
<defs>
<clipPath id="clip0_185_16">
<path d="M0 278L-1.21518e-05 3.05176e-05L436 1.14594e-05L436 278L0 278Z" fill="white"/>
</clipPath>
</defs>
</svg>
