<svg width="285" height="47" viewBox="0 0 285 47" fill="none" xmlns="http://www.w3.org/2000/svg">
<path d="M283.818 46.934H279.351C278.694 46.934 278.169 46.4059 278.169 45.7458V37.8244C278.169 37.4944 278.038 37.1643 277.775 36.9663L267.594 27.4607C267.397 27.2626 267.068 27.1306 266.806 27.1306H248.217C247.56 27.1306 247.035 26.6025 247.035 25.9424V21.3876C247.035 20.7275 247.56 20.1994 248.217 20.1994H276.987C277.249 20.1994 277.446 20.1334 277.643 20.0014C277.972 19.8034 278.169 19.4073 278.169 19.0112V8.38342C278.169 7.98736 277.972 7.6573 277.709 7.45927L277.643 7.39326C277.446 7.19522 277.184 7.12921 276.921 7.12921H255.048C254.392 7.12921 253.866 6.60112 253.866 5.94101V1.32022C253.866 0.660109 254.392 0.132019 255.048 0.132019H279.68C280.008 0.132019 280.336 0.264042 280.534 0.462075L284.672 4.62078C284.869 4.81882 285 5.14887 285 5.47893V21.9157C285 22.2458 284.869 22.5098 284.672 22.7739L280.534 26.9326C280.336 27.1306 280.008 27.2626 279.68 27.2626H277.709C277.381 27.2626 277.184 27.6587 277.446 27.9227L284.672 35.5801C284.869 35.7781 285 36.1081 285 36.4382V45.6798C285 46.4059 284.475 46.934 283.818 46.934Z" fill="#0A1B2D"/>
<path d="M116.391 46.868H87.2275C86.899 46.868 86.6363 46.736 86.3736 46.5379L79.4768 39.8048C79.2798 39.6067 79.1484 39.2767 79.1484 38.9466V23.5V8.11938C79.1484 7.78932 79.2798 7.45927 79.5425 7.26123L86.702 0.462075C86.899 0.264042 87.2275 0.132019 87.5559 0.132019H116.457C117.113 0.132019 117.639 0.660109 117.639 1.32022V8.2514C117.639 8.91151 117.113 9.4396 116.457 9.4396H111.99C111.333 9.4396 110.808 8.91151 110.808 8.2514V8.18539C110.808 7.52528 110.282 6.99719 109.625 6.99719H90.3803C90.0518 6.99719 89.7891 7.12921 89.5264 7.32725L86.4393 10.3638C86.2422 10.5618 86.1108 10.8919 86.1108 11.2219V23.5V35.7781C86.1108 36.1081 86.2422 36.4382 86.4393 36.6362L89.5264 39.6728C89.7234 39.8708 90.0518 40.0028 90.3803 40.0028H109.625C110.282 40.0028 110.808 39.4747 110.808 38.8146C110.808 38.1545 111.333 37.6264 111.99 37.6264H116.457C117.113 37.6264 117.639 38.1545 117.639 38.8146V45.6798C117.573 46.3399 117.048 46.868 116.391 46.868Z" fill="#0A1B2D"/>
<path d="M225.228 39.8048L222.141 36.7683C221.878 36.5702 221.813 36.2402 221.813 35.9101V28.2528C221.813 27.5927 222.338 27.0646 222.995 27.0646H235.278C235.935 27.0646 236.46 26.5365 236.46 25.8764V21.3876C236.46 20.7275 235.935 20.1994 235.278 20.1994H222.995C222.338 20.1994 221.813 19.6713 221.813 19.0112V11.3539C221.813 11.0239 221.944 10.6938 222.141 10.4958L225.228 7.45926C225.425 7.26123 225.754 7.12921 226.082 7.12921H245.853C246.51 7.12921 247.035 6.60112 247.035 5.941V1.45224C247.035 0.792128 246.51 0.264038 245.853 0.264038H223.258C222.929 0.264038 222.667 0.396061 222.404 0.594094L215.244 7.39325C214.982 7.59129 214.85 7.92134 214.85 8.2514V20.1994V23.632V27.0646V39.0126C214.85 39.3427 214.982 39.6727 215.179 39.8708L221.813 46.5379C222.01 46.736 222.338 46.868 222.667 46.868L254.129 47C254.786 47 255.311 46.4719 255.311 45.8118V41.323C255.311 40.6629 254.786 40.1348 254.129 40.1348H225.951C225.754 40.1348 225.491 40.0028 225.228 39.8048Z" fill="#0A1B2D"/>
<path d="M207.034 46.868H177.739C177.411 46.868 177.148 46.736 176.885 46.5379L170.054 39.7388C169.857 39.5407 169.726 39.2107 169.726 38.8806V23.5V23.434V8.05337C169.726 7.72331 169.857 7.39326 170.054 7.19522L176.82 0.396066C177.017 0.198032 177.345 0.0660095 177.673 0.0660095H206.903C207.559 0.0660095 208.085 0.594099 208.085 1.25421V20.5295C208.085 20.8596 207.953 21.1896 207.756 21.3876L206.246 22.9059C205.917 23.236 205.917 23.764 206.246 24.0941L207.756 25.5464C208.019 25.7444 208.15 26.0744 208.15 26.4045L208.216 45.6798C208.216 46.3399 207.691 46.868 207.034 46.868ZM180.826 40.0028H199.94C200.597 40.0028 201.122 39.4747 201.122 38.8146L201.254 29.375C201.254 29.0449 201.122 28.7149 200.925 28.5169L196.919 24.4242C196.459 23.9621 196.459 23.1039 196.984 22.7079L200.925 19.1433C201.188 18.9452 201.319 18.6152 201.319 18.2191V8.18539C201.319 7.52528 200.794 6.99719 200.137 6.99719H180.892C180.563 6.99719 180.301 7.12921 180.038 7.32725L176.951 10.3638C176.688 10.5618 176.622 10.8919 176.622 11.2219V23.5V35.7781C176.622 36.1082 176.754 36.4382 176.951 36.6362L180.038 39.6728C180.235 39.8708 180.498 40.0028 180.826 40.0028Z" fill="#0A1B2D"/>
<path d="M155.867 1.32022V18.8792C155.867 19.5393 155.341 20.0674 154.684 20.0674H147.065H140.234H132.615C131.958 20.0674 131.432 19.5393 131.432 18.8792V1.32022C131.432 0.660109 130.907 0.132019 130.25 0.132019H125.718C125.061 0.132019 124.536 0.660109 124.536 1.32022V20.0674V25.7444C124.536 26.4045 125.061 26.9326 125.718 26.9326H131.432H139.052C139.708 26.9326 140.234 27.4607 140.234 28.1208V45.7458C140.234 46.4059 140.759 46.934 141.416 46.934H145.883C146.54 46.934 147.065 46.4059 147.065 45.7458V28.1868C147.065 27.5267 147.59 26.9986 148.247 26.9986H155.867H161.581C162.238 26.9986 162.763 26.4705 162.763 25.8104V20.1334V1.32022C162.763 0.660109 162.238 0.132019 161.581 0.132019H157.049C156.392 0.132019 155.867 0.660109 155.867 1.32022Z" fill="#0A1B2D"/>
<path fill-rule="evenodd" clip-rule="evenodd" d="M45.4529 1.45225C45.4529 1.71629 45.5186 1.98034 45.6499 2.17837L45.7156 2.24438L51.3644 11.2219L58.5896 22.6419L58.6552 22.7079L59.115 23.434L58.6552 24.1601L58.5896 24.2261L51.3644 35.6461L45.6499 44.6236L45.5843 44.6896C45.4529 44.8876 45.3872 45.1517 45.3872 45.4157C45.3872 46.2079 46.044 46.868 46.8322 46.868H56.6847C57.2102 46.868 57.6043 46.6039 57.867 46.2079L64.5667 35.6461L71.7919 24.2261V24.1601L71.8576 24.0941C71.9233 23.9621 71.989 23.764 72.0546 23.566V23.434V23.236C72.0546 23.0379 71.989 22.8399 71.8576 22.7079L71.7919 22.6419V22.5758L64.6324 11.2219L57.9327 0.660112C57.67 0.264045 57.2102 0 56.7504 0H46.8979C46.1097 0 45.4529 0.660112 45.4529 1.45225Z" fill="#EA293C"/>
<path fill-rule="evenodd" clip-rule="evenodd" d="M40.2639 4.15871L40.1982 4.22472V4.29073L35.7974 11.2219L35.4033 11.882L35.3376 11.948C35.2062 12.1461 35.1406 12.4101 35.1406 12.6742C35.1406 12.9382 35.2062 13.1362 35.3376 13.3343L35.469 13.5323L41.1834 22.5758L41.2491 22.6419C41.3805 22.8399 41.4462 23.1039 41.4462 23.368C41.4462 23.632 41.3805 23.8961 41.2491 24.0941C41.2491 24.1601 41.1834 24.1601 41.1834 24.1601L35.469 33.2037L35.3376 33.4017C35.2062 33.5997 35.1406 33.7978 35.1406 34.0618C35.1406 34.3258 35.2062 34.5899 35.3376 34.7879L35.4033 34.8539L35.7974 35.514L40.1982 42.4452V42.5112L40.2639 42.5773C40.5266 42.9733 40.9207 43.1714 41.4462 43.1714C41.9716 43.1714 42.3657 42.9073 42.6285 42.5112L42.6941 42.4452L47.1606 35.6461L54.3858 24.2261L54.4515 24.0941C54.5828 23.8961 54.5828 23.698 54.6485 23.434C54.6485 23.1699 54.5828 22.9719 54.4515 22.7739L54.3858 22.6419L47.1606 11.2219L42.6941 4.22472L42.6285 4.15871C42.3657 3.76264 41.9059 3.4986 41.4462 3.4986C40.9864 3.4986 40.5266 3.76264 40.2639 4.15871Z" fill="#EA293C"/>
<path fill-rule="evenodd" clip-rule="evenodd" d="M14.1876 0.594088L14.1219 0.660099L7.4879 11.2219L0.262733 22.6418V22.7079C0.0656833 22.9059 0 23.1699 0 23.434C0 23.698 0.0656833 23.9621 0.19705 24.1601V24.2261L7.42222 35.6461L14.1876 46.2079L14.2533 46.2739C14.516 46.6699 14.9101 46.868 15.4356 46.868H36.1258C36.914 46.868 37.5709 46.2079 37.5709 45.4157C37.5709 45.1517 37.5052 44.9536 37.3738 44.7556L37.3081 44.6236L32.8417 37.5604L32.0535 36.3722V36.3062C31.7907 35.9101 31.331 35.7121 30.8712 35.7121H20.6903L13.4651 24.2921C13.3337 24.0941 13.2024 23.83 13.2024 23.5C13.2024 23.2359 13.268 22.9059 13.4651 22.7079L20.6903 11.2879H30.7398C31.1996 11.2879 31.6594 11.0239 31.9221 10.6938V10.6278L32.7103 9.43959L37.1768 2.37639L37.2425 2.24437C37.3738 2.04634 37.4395 1.78229 37.4395 1.58426C37.4395 0.792122 36.7827 0.132009 35.9945 0.132009H15.3699C14.9101 -1.31279e-05 14.4503 0.264032 14.1876 0.594088Z" fill="#EA293C"/>
</svg>
