<svg width="371" height="421" viewBox="0 0 371 421" fill="none" xmlns="http://www.w3.org/2000/svg">
<mask id="mask0_165_28" style="mask-type:alpha" maskUnits="userSpaceOnUse" x="0" y="0" width="371" height="421">
<path d="M102.936 19.5434L102.855 19.3987L102.744 19.2754C101.462 17.853 100.766 15.7868 100.766 13.6363C100.766 7.65903 106.593 2.17844 113.909 1.5L213.9 1.5C218.585 1.5 222.461 3.40454 224.913 6.4968L293.043 101.573L293.044 101.575L366.71 204.022L366.807 204.157L366.932 204.268L367.138 204.451L367.409 204.931C368.064 206.095 368.419 207.278 368.791 208.908L368.791 210.489L368.791 210.838L368.791 212.237C368.791 213.207 368.194 214.651 367.409 216.046L367.138 216.527L366.932 216.709L366.807 216.82L366.71 216.956L293.044 319.403L293.043 319.405L224.913 414.48C222.461 417.573 218.585 419.477 213.9 419.477L113.841 419.477C106.252 419.477 100.766 414.066 100.766 408.04C100.766 405.966 101.417 404.178 102.829 402.298L102.888 402.219L102.936 402.133L103.289 401.507L161.149 321.155L161.149 321.154L234.815 218.707L234.863 218.64L234.904 218.567L235.249 217.954L239.917 211.739L240.594 210.838L239.917 209.937L235.249 203.723L234.904 203.109L234.863 203.037L234.815 202.97L161.149 100.522L161.149 100.522L103.289 20.1701L102.936 19.5434Z" stroke="#EA293C" stroke-width="3"/>
<path d="M52.9947 39.6418L53.1826 39.475L53.3059 39.2561L53.6412 38.661C56.1099 35.5875 59.9369 33.7638 64.1003 34.0718L64.1555 34.0759L64.2109 34.0759C68.8648 34.0759 72.7199 35.955 75.1746 39.0107L75.5098 39.6057L75.5501 39.6773L75.598 39.744L120.506 102.331L120.507 102.332L194.172 204.78L194.181 204.792L194.191 204.805L194.678 205.453L194.678 205.625L194.811 205.919C195.584 207.635 196.254 209.486 196.254 211.246C196.254 213.123 195.911 214.558 194.935 216.001L194.678 216.381L194.678 216.69L194.191 217.339L194.181 217.351L194.172 217.364L120.507 319.811L120.506 319.812L75.598 382.399L75.5501 382.466L75.5098 382.538L75.1746 383.133C72.7199 386.188 68.8648 388.067 64.2109 388.067C59.9679 388.067 56.108 386.204 53.6412 383.133L53.3059 382.538L53.1826 382.319L52.9947 382.152L52.7261 381.913L7.91562 319.462L7.90896 319.453L3.62741 313.58L3.27657 312.957L3.24658 312.904L3.21236 312.854C2.20141 311.358 1.5 309.204 1.5 307.05C1.5 305.15 1.85406 303.41 2.77615 302.01L3.90327 300.676L3.94321 300.629L3.97913 300.578L62.1827 218.898C62.3513 218.747 62.5658 218.548 62.7468 218.333C62.894 218.159 63.1338 217.846 63.2613 217.421C64.4921 215.512 65.317 213.213 65.317 210.547C65.317 207.806 64.4427 205.065 63.09 203.064L62.9843 202.907L62.8431 202.782C62.8424 202.781 62.8429 202.782 62.8421 202.781L62.8399 202.778C62.8283 202.762 62.814 202.738 62.7603 202.643L62.7488 202.623C62.6569 202.459 62.4926 202.167 62.197 201.868L3.97558 120.861L3.94125 120.813L3.90329 120.768L2.85847 119.532C2.1214 117.869 1.5 116.089 1.5 114.394C1.5 112.296 2.16692 110.456 3.27657 108.487L3.62745 107.864L7.90898 101.991L7.91326 101.985L52.7246 39.8815L52.9947 39.6418Z" stroke="#EA293C" stroke-width="3"/>
</mask>
<g mask="url(#mask0_165_28)">
<rect x="-595" y="353" width="287" height="1419" transform="rotate(-90 -595 353)" fill="#EA293C"/>
</g>
</svg>
