<svg width="134" height="60" viewBox="0 0 134 60" fill="none" xmlns="http://www.w3.org/2000/svg">
<path d="M59.9 27C59.9 27.3 59.9 27.6 59.9 27.9C59.9 28.2 59.8 28.5 59.8 28.8H46.1C46.3 29.3 46.5 29.8 46.8 30.2C47.1 30.6 47.4 31 47.9 31.4C48.3 31.7 48.8 32 49.3 32.2C49.8 32.4 50.4 32.5 51 32.5C51.8 32.5 52.5 32.4 53.3 32.1C54.1 31.8 54.7 31.5 55.2 31L57.9 33.7C56.7 34.6 55.6 35.2 54.4 35.6C53.3 36 52.1 36.1 50.8 36.1C49.5 36.1 48.3 35.9 47.2 35.4C46.1 34.9 45.1 34.3 44.3 33.5C43.5 32.7 42.8 31.7 42.4 30.6C41.9 29.5 41.7 28.3 41.7 27.1C41.7 25.9 41.9 24.7 42.4 23.6C42.9 22.5 43.5 21.6 44.4 20.7C45.2 19.9 46.2 19.2 47.3 18.8C48.4 18.3 49.6 18.1 50.9 18.1C52.1 18.1 53.3 18.3 54.4 18.8C55.5 19.2 56.5 19.9 57.3 20.7C58.1 21.5 58.8 22.4 59.3 23.5C59.7 24.5 59.9 25.7 59.9 27ZM55.4 25.4C55.1 24.3 54.5 23.4 53.6 22.8C52.7 22.1 51.8 21.8 50.7 21.8C49.6 21.8 48.7 22.1 47.8 22.8C47 23.5 46.4 24.3 46 25.4H55.4Z" fill="#0A1B2D"/>
<path d="M78.5 35.6H74.1V34.7C73.5 35.2 72.9 35.5 72.3 35.7C71.6 35.9 71 36 70.2 36C69 36 67.9 35.8 66.9 35.3C65.9 34.8 65 34.2 64.3 33.3C63.6 32.5 63 31.5 62.6 30.4C62.2 29.3 62 28.2 62 27C62 25.7 62.2 24.5 62.7 23.4C63.2 22.3 63.8 21.4 64.6 20.5C65.4 19.7 66.2 19.1 67.2 18.6C68.2 18.1 69.2 17.9 70.3 17.9C71 17.9 71.7 18 72.4 18.2C73.1 18.4 73.7 18.7 74.2 19V11H78.5V35.6ZM74.2 31V22.8C74 22.7 73.8 22.5 73.5 22.4C73.2 22.3 73 22.2 72.7 22.1C72.4 22 72.1 21.9 71.9 21.9C71.6 21.9 71.4 21.8 71.2 21.8C70.5 21.8 69.8 21.9 69.3 22.2C68.7 22.4 68.2 22.8 67.8 23.3C67.4 23.8 67 24.3 66.8 25C66.6 25.7 66.4 26.4 66.4 27.2C66.4 28 66.5 28.7 66.8 29.3C67 29.9 67.4 30.5 67.8 31C68.2 31.5 68.7 31.8 69.3 32.1C69.9 32.4 70.5 32.5 71.2 32.5C72.1 32.3 73.2 31.9 74.2 31Z" fill="#0A1B2D"/>
<path d="M86.4 15.5H82V11.1H86.4V15.5ZM86.4 35.6H82.1V18.5H86.4V35.6Z" fill="#0A1B2D"/>
<path d="M105.7 33C104.8 34 103.8 34.7 102.6 35.3C101.4 35.8 100.1 36.1 98.7 36.1C97.5 36.1 96.3 35.9 95.2 35.4C94.1 34.9 93.1 34.3 92.3 33.5C91.5 32.7 90.8 31.7 90.4 30.6C89.9 29.5 89.7 28.3 89.7 27C89.7 25.7 89.9 24.6 90.4 23.5C90.9 22.4 91.5 21.5 92.3 20.6C93.1 19.8 94.1 19.2 95.2 18.7C96.3 18.2 97.5 18 98.8 18C100.1 18 101.3 18.2 102.5 18.7C103.7 19.2 104.7 19.9 105.6 20.9L102.7 23.8C102.3 23.2 101.7 22.8 101.1 22.4C100.5 22 99.7 21.8 98.8 21.8C98.1 21.8 97.5 21.9 96.9 22.2C96.3 22.5 95.8 22.8 95.4 23.3C95 23.8 94.6 24.3 94.3 24.9C94 25.5 93.9 26.2 93.9 26.9C93.9 27.6 94 28.3 94.3 28.9C94.6 29.5 94.9 30.1 95.3 30.5C95.7 31 96.2 31.3 96.8 31.6C97.4 31.9 98 32 98.7 32C99.5 32 100.3 31.8 101 31.4C101.7 31 102.2 30.5 102.7 29.8L105.7 33Z" fill="#0A1B2D"/>
<path d="M121.7 35.6H117.4V34.7C116.6 35.2 115.9 35.6 115 35.8C114.2 36 113.3 36.1 112.4 36.1C111.6 36.1 110.8 36 110.1 35.7C109.4 35.5 108.8 35.1 108.4 34.6C107.9 34.1 107.5 33.6 107.3 33C107 32.4 106.9 31.7 106.9 30.9C106.9 29.9 107.1 29.1 107.5 28.4C107.9 27.7 108.5 27.1 109.2 26.6C109.9 26.1 110.8 25.8 111.8 25.5C112.8 25.2 113.8 25.1 115 25.1H117.5C117.5 24.1 117.2 23.3 116.5 22.7C115.8 22.1 114.9 21.8 113.7 21.8C113.1 21.8 112.5 21.9 111.9 22.1C111.3 22.3 110.6 22.7 110 23.3L107.5 20.8C108.4 19.9 109.5 19.3 110.7 18.8C111.9 18.3 113.1 18.1 114.4 18.1C115.6 18.1 116.6 18.3 117.6 18.7C118.5 19.1 119.3 19.6 119.8 20.2C120.5 21 121.1 21.8 121.4 22.7C121.7 23.6 121.9 24.8 121.9 26.3V35.6H121.7ZM117.5 31.4V28.2H115.5C114.9 28.2 114.3 28.2 113.8 28.3C113.3 28.4 112.8 28.5 112.4 28.7C112 28.9 111.7 29.1 111.5 29.4C111.3 29.7 111.2 30.1 111.2 30.5C111.2 31.1 111.4 31.6 111.9 32C112.4 32.4 113 32.6 113.7 32.6C114.3 32.6 115 32.5 115.6 32.3C116.2 32 116.8 31.7 117.5 31.4Z" fill="#0A1B2D"/>
<path d="M132.2 35.5C131.9 35.7 131.5 35.8 131.1 35.9C130.7 36 130.2 36 129.8 36C129.2 36 128.6 35.9 128 35.7C127.4 35.5 126.9 35.3 126.5 34.9C126.1 34.5 125.7 34 125.5 33.4C125.2 32.8 125.1 32.1 125.1 31.2V11H129.5V30.6C129.5 31.3 129.6 31.8 129.9 32.1C130.2 32.4 130.5 32.5 130.9 32.5C131.4 32.5 131.9 32.4 132.3 32.1V35.5H132.2Z" fill="#0A1B2D"/>
<path d="M29.4 45.4L20.9 14.6L18.3 29.2L1.6 29C0.7 29 0 28.3 0 27.4C0 26.5 0.7 25.8 1.6 25.8L15.7 25.9L20.2 0L29.3 33.2L34.8 12.7L42.1 25.4L50.2 25.6C51.1 25.6 51.8 26.4 51.8 27.2C51.8 28.1 51 28.8 50.2 28.8L40.2 28.6L35.9 21L29.4 45.4Z" fill="#0A1B2D"/>
<path d="M41.2 25.4L50.2 25.6C51.1 25.6 51.8 26.4 51.8 27.2C51.8 28.1 51 28.8 50.2 28.8L40.2 28.6" fill="#0A1B2D"/>
<path d="M80.3 49.7C79.9 49.4 79.4 49.2 78.9 49.2C78.4 49.2 77.9 49.4 77.5 49.7C77.1 50 76.8 50.5 76.6 51H81.2C81.1 50.4 80.8 50 80.3 49.7Z" fill="#0A1B2D"/>
<path d="M125.1 47.6C124 47.6 123.1 48.5 123.1 49.6C123.1 50.1 123.3 50.6 123.7 51C124.1 51.4 124.6 51.6 125.1 51.6C125.6 51.6 126.1 51.4 126.5 51C126.9 50.6 127.1 50.1 127.1 49.6C127.2 48.5 126.3 47.6 125.1 47.6Z" fill="#0A1B2D"/>
<path d="M125.1 41.4H62.5C62.1 41.4 61.8 41.7 61.8 42.1V58.4C61.8 58.8 62.1 59.1 62.5 59.1H125.1C130 59.1 133.9 55.1 133.9 50.3C134 45.3 130 41.4 125.1 41.4ZM73.2 54.2C73 54.6 72.7 54.9 72.4 55.2C72.1 55.5 71.7 55.7 71.2 55.9C70.7 56.1 70.2 56.2 69.7 56.2C69.2 56.2 68.7 56.2 68.3 56.1C67.9 56 67.5 56 67.2 55.8C66.8 55.7 66.5 55.5 66.2 55.3C65.9 55.1 65.5 54.9 65.2 54.6L66.8 53C67.3 53.4 67.7 53.7 68.2 53.8C68.6 54 69.1 54 69.7 54C69.9 54 70.1 54 70.3 53.9C70.5 53.8 70.7 53.8 70.8 53.6C70.9 53.5 71.1 53.4 71.1 53.2C71.2 53.1 71.2 52.9 71.2 52.7C71.2 52.5 71.2 52.4 71.1 52.2C71 52.1 70.9 51.9 70.7 51.8C70.5 51.7 70.3 51.5 70 51.4C69.7 51.3 69.3 51.1 68.8 50.9C68.4 50.7 68 50.6 67.6 50.4C67.2 50.2 66.9 50 66.6 49.7C66.3 49.4 66.1 49.1 65.9 48.7C65.7 48.3 65.6 47.9 65.6 47.4C65.6 46.9 65.7 46.5 65.9 46C66.1 45.6 66.4 45.2 66.7 44.9C67 44.6 67.4 44.4 67.9 44.2C68.4 44 68.9 44 69.4 44C70.3 44 71 44.1 71.7 44.3C72.3 44.5 72.9 44.9 73.3 45.3L71.7 46.9C71.4 46.6 71.1 46.4 70.7 46.3C70.3 46.2 69.9 46.1 69.4 46.1C69.2 46.1 69 46.1 68.8 46.2C68.6 46.3 68.4 46.4 68.3 46.5C68.2 46.6 68.1 46.7 68 46.9C67.9 47.1 67.9 47.2 67.9 47.4C67.9 47.6 67.9 47.8 68 47.9C68.1 48.1 68.2 48.2 68.4 48.3C68.6 48.4 68.8 48.6 69.1 48.7C69.4 48.8 69.8 49 70.2 49.2C70.8 49.4 71.3 49.6 71.7 49.9C72.1 50.1 72.5 50.4 72.7 50.7C73 51 73.2 51.3 73.3 51.7C73.4 52.1 73.5 52.5 73.5 52.9C73.4 53.4 73.3 53.8 73.2 54.2ZM83.4 52.2C83.4 52.3 83.4 52.5 83.3 52.7H76.6C76.7 52.9 76.8 53.2 76.9 53.4C77 53.6 77.2 53.8 77.4 54C77.6 54.2 77.8 54.3 78.1 54.4C78.4 54.5 78.6 54.5 78.9 54.5C79.3 54.5 79.7 54.4 80 54.3C80.4 54.2 80.7 54 80.9 53.8L82.2 55.1C81.6 55.5 81.1 55.8 80.5 56C79.9 56.2 79.4 56.3 78.7 56.3C78.1 56.3 77.5 56.2 76.9 56C76.4 55.8 75.9 55.5 75.5 55.1C75.1 54.7 74.8 54.2 74.5 53.7C74.3 53.2 74.2 52.6 74.2 52C74.2 51.4 74.3 50.8 74.5 50.3C74.7 49.8 75.1 49.3 75.5 48.9C75.9 48.5 76.4 48.2 76.9 48C77.4 47.8 78 47.7 78.6 47.7C79.2 47.7 79.8 47.8 80.3 48C80.8 48.2 81.3 48.5 81.7 48.9C82.1 49.3 82.4 49.7 82.7 50.3C82.9 50.8 83.1 51.4 83.1 52.1C83.4 51.9 83.4 52 83.4 52.2ZM91.5 56H89.4V55.5C89 55.8 88.6 55.9 88.2 56C87.8 56.1 87.4 56.1 86.9 56.1C86.5 56.1 86.1 56 85.8 55.9C85.5 55.8 85.2 55.6 84.9 55.4C84.7 55.2 84.5 54.9 84.3 54.6C84.2 54.3 84.1 53.9 84.1 53.6C84.1 53.1 84.2 52.7 84.4 52.4C84.6 52 84.9 51.8 85.2 51.5C85.6 51.3 86 51.1 86.5 51C87 50.9 87.5 50.8 88 50.8H89.2C89.2 50.3 89 49.9 88.7 49.6C88.4 49.3 87.9 49.2 87.3 49.2C87 49.2 86.7 49.3 86.4 49.4C86.1 49.5 85.8 49.7 85.5 50L84.3 48.8C84.7 48.4 85.3 48 85.8 47.8C86.4 47.6 87 47.5 87.6 47.5C88.2 47.5 88.7 47.6 89.2 47.8C89.7 48 90 48.2 90.3 48.5C90.7 48.9 90.9 49.3 91.1 49.7C91.2 50.2 91.3 50.7 91.3 51.4V56H91.5ZM98.1 50.2C97.9 50 97.7 49.8 97.4 49.6C97.2 49.4 96.9 49.3 96.7 49.3C96.6 49.3 96.4 49.3 96.3 49.4C96.1 49.5 96 49.6 95.8 49.7C95.7 49.8 95.5 50 95.4 50.3C95.3 50.5 95.3 50.8 95.3 51.2V56H93.2V47.6H95.3V48.5C95.6 48.1 95.8 47.9 96.1 47.7C96.4 47.5 96.7 47.4 97.1 47.4C97.5 47.4 97.8 47.5 98.2 47.7C98.6 47.9 98.9 48.2 99.2 48.5L98.1 50.2ZM105.9 55.8C105.3 56.1 104.7 56.2 104 56.2C103.4 56.2 102.8 56.1 102.3 55.9C101.8 55.7 101.3 55.4 100.9 55C100.5 54.6 100.2 54.1 100 53.6C99.8 53.1 99.7 52.5 99.7 51.8C99.7 51.2 99.8 50.6 100 50.1C100.2 49.6 100.5 49.1 100.9 48.7C101.3 48.3 101.8 48 102.3 47.8C102.8 47.6 103.4 47.5 104 47.5C104.6 47.5 105.2 47.6 105.8 47.8C106.4 48 106.9 48.4 107.3 48.9L105.9 50.3C105.7 50 105.4 49.8 105.1 49.6C104.8 49.4 104.4 49.3 104 49.3C103.7 49.3 103.4 49.4 103.1 49.5C102.8 49.6 102.6 49.8 102.3 50C102.1 50.2 101.9 50.5 101.8 50.8C101.7 51.1 101.6 51.4 101.6 51.8C101.6 52.1 101.7 52.5 101.8 52.8C101.9 53.1 102.1 53.4 102.3 53.6C102.5 53.8 102.8 54 103.1 54.1C103.4 54.2 103.7 54.3 104 54.3C104.4 54.3 104.8 54.2 105.1 54C105.4 53.8 105.7 53.5 105.9 53.2L107.4 54.7C107.1 55.2 106.5 55.6 105.9 55.8ZM116.1 56H114V51C114 50.7 114 50.4 113.9 50.2C113.8 50 113.7 49.8 113.5 49.6C113.3 49.5 113.2 49.3 113 49.3C112.8 49.2 112.6 49.2 112.4 49.2C112.1 49.2 111.8 49.2 111.5 49.3C111.2 49.4 110.9 49.5 110.7 49.7V56H108.6V44H110.7V48.1C111 47.9 111.4 47.7 111.8 47.6C112.2 47.5 112.6 47.4 113 47.4C113.4 47.4 113.8 47.5 114.2 47.6C114.6 47.7 114.9 48 115.2 48.2C115.5 48.5 115.7 48.8 115.9 49.3C116.1 49.7 116.2 50.2 116.2 50.8V56H116.1ZM127.8 51.6C126.9 52.8 125 53.4 123.3 52.4L121.7 54L121.6 54.1C121.5 54.2 121.3 54.2 121.2 54.2C121.1 54.2 121 54.2 120.9 54.1C120.7 54 120.5 53.8 120.5 53.5C120.5 53.3 120.6 53.1 120.7 52.9L122.3 51.3C121.3 49.7 121.8 47.8 123 46.9C124.3 45.8 126.2 45.9 127.4 47.1C128.7 48.4 128.8 50.3 127.8 51.6Z" fill="#0A1B2D"/>
<path d="M87.7 52.4C87.4 52.4 87.2 52.5 87 52.6C86.8 52.7 86.7 52.8 86.5 53C86.4 53.1 86.3 53.3 86.3 53.5C86.3 53.8 86.4 54 86.6 54.2C86.8 54.4 87.1 54.5 87.5 54.5C87.8 54.5 88.1 54.5 88.4 54.4C88.7 54.3 89 54.2 89.3 54V52.4H88.3C88.2 52.3 87.9 52.4 87.7 52.4Z" fill="#0A1B2D"/>
</svg>
