<svg width="134" height="49" viewBox="0 0 134 49" fill="none" xmlns="http://www.w3.org/2000/svg">
<g clip-path="url(#clip0_159_35)">
<path d="M69.7 31.4L69.8 31.9C69.9 32.3 69.6 32.7 69.2 32.8L63.5 33.7V33.8C63.7 35 64.7 35.8 65.8 35.6L68.7 35.1C69.1 35 69.6 35.3 69.7 35.7C69.8 36.2 69.5 36.6 69 36.7L65.4 37.3C63.3 37.6 61.3 36.2 61 34.1L60.8 32.8C60.5 30.7 61.9 28.7 64 28.4L65.4 28.2C67.3 27.9 69.3 29.3 69.7 31.4ZM63.2 32L67.1 31.4C66.7 30.5 65.8 29.8 64.9 30C64 30.2 63.2 31 63.2 32ZM62.7 26.8L65.3 25.4C65.5 25.3 65.7 25.3 65.8 25.4C66 25.5 66.1 25.6 66.1 25.8L66.2 26.2C66.3 26.5 66.1 26.8 65.8 26.9L63.1 27.9C62.8 28 62.5 27.9 62.3 27.6C62.3 27.3 62.4 27 62.7 26.8Z" fill="#0A1B2D"/>
<path d="M91.1 31.7V40C91.1 41.2 89.8 42.2 88.6 42.3C87.4 42.3 86.4 41.4 86.4 40.2V34C86.4 33.4 85.9 32.9 85.3 32.9H80.5C79.9 32.9 79.4 33.4 79.4 34V40C79.4 41.2 78.5 42.2 77.3 42.3C76.1 42.3 74.9 41.4 74.9 40.2V22.7C74.9 21.6 75.9 20.7 76.9 20.5C78.2 20.3 79.4 21.4 79.4 22.7V28.3C79.4 28.9 79.9 29.4 80.5 29.4H85.3C85.9 29.4 87.2 29.5 88.2 29.5C89.7 29.4 91.1 29.9 91.1 31.7Z" fill="#0A1B2D"/>
<path d="M109.4 33.5V35.7C109.4 39.3 106.4 42.3 102.8 42.3H99.2C95.6 42.3 92.6 39.3 92.6 35.7V33.5C92.6 29.9 95.6 26.9 99.2 26.9H102.8C106.5 26.9 109.4 29.9 109.4 33.5ZM105.1 33.5C105.1 31.4 103.4 29.8 101.4 29.8H100.8C98.7 29.8 97.1 31.5 97.1 33.5V35.7C97.1 37.8 98.8 39.4 100.8 39.4H101.4C103.5 39.4 105.1 37.7 105.1 35.7V33.5Z" fill="#0A1B2D"/>
<path d="M115.7 29.2V43.4C115.7 46 113.5 48.2 110.9 48.2H110.3C109.5 48.2 108.8 47.5 108.8 46.7C108.8 45.9 109.4 45.3 110.2 45.3C110.8 45.3 111.3 44.7 111.3 44.1V29.1C111.3 27.7 112.6 26.6 114 27C115.1 27.3 115.7 28.2 115.7 29.2Z" fill="#0A1B2D"/>
<path d="M133.2 33.5V34.3C133.2 35 132.6 35.6 131.9 35.6H122V35.7C122 37.8 123.6 39.4 125.4 39.4H130.5C131.2 39.4 131.9 39.9 132 40.7C132.1 41.5 131.4 42.2 130.6 42.2H124.3C120.7 42.2 117.7 39.2 117.7 35.6V33.4C117.7 29.8 120.7 26.8 124.3 26.8H126.7C130.3 26.9 133.2 29.9 133.2 33.5ZM122.1 32.7H128.8C128.5 31 127.1 29.7 125.4 29.7C123.7 29.7 122.5 31 122.1 32.7Z" fill="#0A1B2D"/>
<path d="M72.6 10.7V14.3C72.6 19.4 68.4 23.6 63.3 23.6H60.2C55.1 23.6 50.9 19.4 50.9 14.3V10.7C50.9 5.59999 55.1 1.39999 60.2 1.39999H63.3C68.4 1.39999 72.6 5.59999 72.6 10.7ZM68.1 10.7C68.1 7.59999 65.6 5.09999 62.5 5.09999H60.9C57.8 5.09999 55.3 7.59999 55.3 10.7V14.3C55.3 17.4 57.8 19.9 60.9 19.9H62.5C65.6 19.9 68.1 17.4 68.1 14.3V10.7Z" fill="#0A1B2D"/>
<path d="M90.4 13.7V24.8C90.4 26.1 89.3 27.2 87.9 27C86.7 26.9 85.9 25.9 85.9 24.7V13.7C85.9 11.9 84.5 10.4 82.8 10.3C80.9 10.2 79.4 11.7 79.4 13.6V16.4C79.4 17.7 78.3 18.8 76.9 18.6C75.7 18.5 74.9 17.5 74.9 16.3V9.69999C74.9 8.49999 75.9 7.39999 77.1 7.39999C77.9 7.39999 78.7 7.89999 79.1 8.49999C80.1 7.79999 81.3 7.39999 82.7 7.39999H84.3C87.6 7.39999 90.4 10.2 90.4 13.7Z" fill="#0A1B2D"/>
<path d="M109.4 3.5V21.3C109.4 22.5 108.4 23.5 107.1 23.5C106.2 23.5 105.4 22.9 105 22.1C103.8 23 102.4 23.5 100.9 23.5H99.3C95.5 23.5 92.4 20.4 92.4 16.6V14.3C92.4 10.5 95.5 7.4 99.3 7.4H100.9C102.3 7.4 103.7 7.9 104.8 8.6V3.5C104.8 2.3 105.8 1.2 107 1.2C108.4 1.2 109.4 2.2 109.4 3.5ZM104.9 16.6V14.3C104.9 12.2 103.2 10.4 101 10.4C98.9 10.4 97.1 12.1 97.1 14.3V16.6C97.1 18.7 98.8 20.5 101 20.5C103.1 20.5 104.9 18.8 104.9 16.6Z" fill="#0A1B2D"/>
<path d="M127.6 14.3V15.2C127.6 15.9 126.9 16.5 126.1 16.5H115.9V16.6C115.9 18.7 117.5 20.5 119.5 20.5H124.9C125.7 20.5 126.4 21.2 126.4 22C126.4 22.8 125.7 23.5 124.9 23.5H118.3C114.5 23.5 111.4 20.4 111.4 16.6V14.3C111.4 10.5 114.5 7.39999 118.3 7.39999H120.8C124.5 7.39999 127.6 10.5 127.6 14.3ZM116 13.5H123C122.7 11.7 121.2 10.4 119.5 10.4C117.8 10.4 116.3 11.8 116 13.5Z" fill="#0A1B2D"/>
<path d="M28.6 1.9C35.2 1.9 40.5 7.2 40.5 13.8V28.6C40.5 35.2 35.2 40.5 28.6 40.5H13.8C7.2 40.5 1.9 35.2 1.9 28.6V13.8C1.9 7.2 7.2 1.9 13.8 1.9H28.6ZM28.6 0H13.8C6.2 0 0 6.2 0 13.8V28.6C0 36.2 6.2 42.4 13.8 42.4H28.6C36.2 42.4 42.4 36.2 42.4 28.6V13.8C42.4 6.2 36.2 0 28.6 0Z" fill="#0A1B2D"/>
<path d="M21.2 20.3L18.8 19.6C18.6 19.5 18.4 19.8 18.6 20L21.2 22.6C21.3 22.7 21.5 22.7 21.5 22.6L24.1 20C24.3 19.8 24.1 19.5 23.9 19.6L21.5 20.3C21.3 20.3 21.2 20.3 21.2 20.3Z" fill="#0A1B2D"/>
<path d="M16.3 14.1L15.5 13.5C15.4 13.4 15.1 13.4 15 13.6L14.9 13.7L14.7 13.9L13.7 13.5C13.5 13.4 13.2 13.5 13.1 13.8C13 14 13.1 14.3 13.4 14.4L14.7 14.9C14.9 15 15.1 14.9 15.2 14.8L15.5 14.5L16.1 14.6C16.2 14.6 16.3 14.6 16.3 14.5C16.4 14.4 16.4 14.2 16.3 14.1Z" fill="#0A1B2D"/>
<path d="M17.3 13.3L16.8 11.5C16.8 11.4 16.8 11.4 16.7 11.4C16.6 11.2 16.3 11.2 16.1 11.3L16 11.4L15.1 9.7C15 9.5 14.7 9.4 14.5 9.5C14.3 9.6 14.2 9.9 14.3 10.1L15.4 12.3V12.4C15.6 12.6 15.8 12.6 16 12.5L16.2 12.4L17 13.4H17.1C17.2 13.4 17.3 13.3 17.3 13.3Z" fill="#0A1B2D"/>
<path d="M29.4 13.7C29.3 13.5 29 13.3 28.8 13.4L27.8 13.8L27.6 13.6L27.5 13.5C27.4 13.4 27.2 13.3 27 13.4L26.2 14C26.1 14 26.1 14.1 26.1 14.2C26.1 14.3 26.2 14.4 26.3 14.4L26.9 14.3L27.2 14.6C27.3 14.8 27.5 14.8 27.7 14.7L29 14.2C29.4 14.2 29.5 14 29.4 13.7Z" fill="#0A1B2D"/>
<path d="M26.4 12.4C26.7 12.6 27 12.5 27.1 12.3L28.2 10.1C28.3 9.9 28.2 9.6 28 9.5C27.8 9.4 27.5 9.5 27.4 9.7L26.5 11.4L26.4 11.3L26.3 11.2L26.2 11.1C26 11 25.8 11.2 25.7 11.4L25.2 13.2V13.3H25.3L26.1 12.3L26.4 12.4Z" fill="#0A1B2D"/>
<path d="M30.1 17.7C30.3 17.5 30.4 17.2 30.3 16.9C30.2 16.6 29.9 16.5 29.6 16.5H24.5C24.2 17.1 23.7 17.5 23.3 17.9H27.9L21.3 24.5L14.7 17.9H19.4C19 17.5 18.6 17 18.2 16.5H13C12.7 16.5 12.4 16.7 12.3 16.9C12.2 17.2 12.2 17.5 12.5 17.7L20.6 25.8V31.6H18.5C18.1 31.6 17.8 31.9 17.8 32.3C17.8 32.7 18.1 33 18.5 33H21.3H24.1C24.5 33 24.8 32.7 24.8 32.3C24.8 31.9 24.5 31.6 24.1 31.6H22V25.8L30.1 17.7Z" fill="#0A1B2D"/>
<path d="M21.3 10.6C19.4 10.6 17.9 12.1 17.9 14C17.9 17.1 21.3 18.8 21.3 18.8C21.3 18.8 24.7 17.1 24.7 14C24.6 12.1 23.1 10.6 21.3 10.6ZM21.3 15.4C20.5 15.4 19.9 14.8 19.9 14C19.9 13.2 20.5 12.6 21.3 12.6C22.1 12.6 22.7 13.2 22.7 14C22.7 14.8 22 15.4 21.3 15.4Z" fill="#0A1B2D"/>
</g>
<defs>
<clipPath id="clip0_159_35">
<rect width="133.2" height="48.2" fill="white"/>
</clipPath>
</defs>
</svg>
