<svg width="144" height="50" viewBox="0 0 144 50" fill="none" xmlns="http://www.w3.org/2000/svg">
<g clip-path="url(#clip0_159_23)">
<path d="M104.466 10.7229H95.3664V49.9561H104.466C108.066 49.9561 110.066 47.7649 110.066 44.1129V16.5662C110.066 12.9142 108.166 10.7229 104.466 10.7229ZM107.366 43.3825C107.366 45.8867 106.066 47.2432 103.566 47.2432H98.1664V13.4359H103.666C106.066 13.4359 107.366 14.7923 107.366 17.2966V43.3825Z" fill="#0A1B2D"/>
<path d="M84.5664 3.2102C80.5664 3.2102 77.3664 6.54919 77.3664 10.7229C77.3664 14.2706 79.7664 17.4009 83.1664 18.027V49.9561H85.8664V18.027C89.2664 17.2966 91.6664 14.2706 91.6664 10.7229C91.6664 6.54919 88.4664 3.2102 84.5664 3.2102ZM84.5664 15.2097C82.1664 15.2097 80.2664 13.2272 80.2664 10.7229C80.2664 8.21869 82.1664 6.23616 84.5664 6.23616C86.9664 6.23616 88.8664 8.21869 88.8664 10.7229C88.8664 13.2272 86.9664 15.2097 84.5664 15.2097Z" fill="#0A1B2D"/>
<path d="M30.1664 49.9561H32.8664V10.7229H30.1664V49.9561Z" fill="#0A1B2D"/>
<path d="M21.0664 26.5832H2.76641V10.7229H0.0664062V49.9561H2.76641V36.6002H21.0664V49.9561H23.7664V10.7229H21.0664V26.5832ZM21.0664 33.7829H2.76641V29.4004H21.0664V33.7829Z" fill="#0A1B2D"/>
<path d="M138.366 10.7229H122.066C118.466 10.7229 116.466 12.9142 116.466 16.5662V44.2172C116.466 47.7649 118.366 50.0605 122.066 50.0605H136.766H138.366C141.966 50.0605 143.966 47.8693 143.966 44.2172V16.5662C143.966 12.9142 142.066 10.7229 138.366 10.7229ZM141.166 43.3825C141.166 45.678 139.966 47.1389 137.666 47.2432H122.966C120.566 47.2432 119.266 45.8867 119.266 43.3825V17.2966C119.266 14.7923 120.566 13.4359 123.066 13.4359H137.466C139.866 13.4359 141.166 14.7923 141.166 17.2966V43.3825Z" fill="#0A1B2D"/>
<path d="M68.7664 31.696C72.3664 31.696 74.3664 29.5048 74.3664 25.8528V16.5662C74.3664 13.0185 72.4664 10.7229 68.7664 10.7229H60.0664V49.9561H62.7664V13.4359H67.8664C70.2664 13.4359 71.5664 14.7923 71.5664 17.2966V25.018C71.5664 27.5223 70.2664 28.8787 67.7664 28.8787H64.1664L65.2664 31.5917L72.6664 49.9561H75.6664L68.2664 31.5917L68.7664 31.696Z" fill="#0A1B2D"/>
<path d="M51.5664 11.662C50.5664 11.036 49.2664 10.6186 48.0664 10.7229H39.3664V49.9561H48.0664C49.2664 49.9561 50.4664 49.6431 51.5664 49.017C52.4664 48.391 53.1664 47.3475 53.4664 46.3041C53.6664 45.5737 53.7664 44.9476 53.7664 44.2172V32.4264C53.7664 30.4439 53.1664 28.8787 52.0664 27.9396C53.1664 26.8962 53.7664 25.4354 53.7664 23.4529V16.5662C53.7664 15.8358 53.6664 15.1054 53.4664 14.4793C53.0664 13.3315 52.4664 12.2881 51.5664 11.662ZM50.8664 40.1478V43.3825C50.8664 44.2172 50.6664 45.1563 50.2664 45.8867C49.6664 46.8258 48.5664 47.2432 47.1664 47.2432H42.0664V29.4004H47.6664C49.8664 29.6091 50.8664 30.9656 50.8664 33.2612V40.1478ZM50.8664 20.5312V22.6181C50.9664 23.6615 50.5664 24.705 49.8664 25.4354C49.7664 25.5397 49.6664 25.5397 49.6664 25.6441C49.5664 25.7484 49.4664 25.7484 49.3664 25.8528C49.2664 25.9571 49.1664 25.9571 49.0664 25.9571C48.9664 25.9571 48.8664 26.0615 48.7664 26.0615C48.7664 26.0615 48.7664 26.0615 48.6664 26.0615C48.5664 26.0615 48.4664 26.1658 48.3664 26.1658C48.3664 26.1658 48.3664 26.1658 48.2664 26.1658C48.1664 26.1658 48.0664 26.1658 47.9664 26.2701H47.8664C47.7664 26.2701 47.6664 26.2701 47.5664 26.2701H47.4664C47.3664 26.2701 47.1664 26.2701 46.9664 26.2701H41.9664V13.4359H47.0664C48.4664 13.4359 49.5664 13.9576 50.1664 14.7923C50.6664 15.5227 50.8664 16.4618 50.7664 17.2966L50.8664 20.5312Z" fill="#0A1B2D"/>
<path d="M133.766 18.4444H132.466H126.666C124.466 18.4444 123.266 19.6965 123.266 21.8877V39.6261C123.266 41.9217 124.466 43.0695 126.566 43.0695H133.966C135.966 42.9651 136.966 41.713 136.966 39.6261V21.8877C137.066 19.5921 135.866 18.4444 133.766 18.4444ZM134.566 38.1653C134.666 39.2087 133.966 40.2522 132.866 40.3565C132.766 40.3565 132.666 40.3565 132.566 40.3565H127.966C126.566 40.3565 125.866 39.6261 125.866 38.1653V23.4529C125.866 22.0964 126.566 21.2616 128.066 21.2616H132.466C133.866 21.2616 134.566 21.992 134.566 23.4529V38.1653Z" fill="#0A1B2D"/>
<path d="M35.7664 -0.0244522L30.4664 6.34051C30.2664 6.65354 30.1664 6.96657 30.3664 7.2796H32.7664L38.0664 0.914641C38.2664 0.705954 38.2664 0.288579 38.0664 -0.0244522H35.7664Z" fill="#0A1B2D"/>
</g>
<defs>
<clipPath id="clip0_159_23">
<rect width="144" height="49.9806" fill="white"/>
</clipPath>
</defs>
</svg>
