<svg width="129" height="75" viewBox="0 0 129 75" fill="none" xmlns="http://www.w3.org/2000/svg">
<g clip-path="url(#clip0_158_11)">
<path d="M21 67.9C18.9 67.9 16.9 67.9 15 67.9C14.7 67.9 14.4 67.6 14.2 67.3C11.9 64.2 9.6 61.1 7.3 58.1C7 57.7 6.5 57.5 6.1 57.2C6 57.3 5.9 57.3 5.8 57.4C5.8 60.9 5.8 64.4 5.8 67.9C3.8 67.9 1.9 67.9 0 67.9C0 60.1 0 52.3 0 44.5C0.2 44.5 0.3 44.4 0.5 44.4C4 44.4 7.6 44.4 11.1 44.6C12.7 44.7 14.3 45.2 15.6 46.2C18.8 48.5 18.7 53 15.4 55.3C14.6 55.9 13.6 56.3 12.7 56.8C15.4 60.4 18.1 64.1 21 67.9ZM5.8 46.7C5.8 48.9 5.8 51 5.8 53.1C5.8 55.5 5.8 55.5 8.2 55.1C10.7 54.7 12.1 52.9 11.9 50.5C11.7 48.2 10.1 46.8 7.6 46.7C7.1 46.7 6.5 46.7 5.8 46.7Z" fill="#0A1B2D"/>
<path d="M65.3 49.8C67.1 49.8 68.8 49.8 70.5 49.8C70.8 49.8 71.2 50.2 71.3 50.4C72.9 53.4 74.5 56.5 76 59.6C76.1 59.9 76.3 60.2 76.5 60.6C77.4 58.6 78.3 56.7 79.1 54.8C79.8 53.3 80.4 51.8 81.1 50.4C81.2 50.1 81.6 49.8 81.8 49.8C82.9 49.7 83.9 49.8 85.1 49.8C84.8 50.6 84.5 51.2 84.2 51.8C81.6 57.5 79 63.3 76.4 69C74.9 72.4 72.1 74.3 68.9 73.9C68.2 73.8 67.5 73.5 66.9 73.2C66.2 72.8 65.9 72.1 66.2 71.2C66.4 70.3 67 70 67.8 69.8C68.6 69.6 69.3 69.7 70 70.3C70.9 71 71.3 70.9 71.9 69.9C72.5 68.9 73 67.9 73.4 66.8C73.5 66.4 73.3 65.9 73.1 65.5C70.6 60.6 68.1 55.7 65.6 50.9C65.7 50.6 65.5 50.3 65.3 49.8Z" fill="#0A1B2D"/>
<path d="M37.3 60.9C38.3 61 39.1 61.2 40.1 61.3C39.3 63.9 37.7 65.7 35.5 67C30.3 70.1 23.4 67.3 22.1 61.4C21.3 57.5 22.7 53.4 26 51.2C29.2 49.2 33.6 49.3 36.6 51.6C38.4 53 39.5 55.4 39.2 57.4C35.2 57.4 31.2 57.4 27.1 57.4C27.1 59.9 27.7 62.1 29.6 63.9C30.5 64.8 31.7 65 32.9 64.6C35 64 36.5 62.9 37.3 60.9ZM33.1 55.5C33 53.4 31.5 51.8 29.9 52C28.4 52.2 27.1 54 27.5 55.5C29.3 55.5 31.2 55.5 33.1 55.5Z" fill="#0A1B2D"/>
<path d="M54.7 52.4C53.7 52.4 52.8 52.4 51.9 52.4C51.9 51.9 51.9 51.5 51.9 51.1C51.9 50.9 52.2 50.6 52.3 50.6C54.9 50.1 56 48.2 56.7 46C57 44.9 57.4 44.5 58.6 44.6C59.1 44.7 59.6 44.6 60.2 44.6C60.2 46.5 60.2 48.3 60.2 50.2C61.7 50.2 63.1 50.2 64.5 50.2C64.5 51 64.5 51.7 64.5 52.4C63.1 52.4 61.7 52.4 60.3 52.4C60.3 52.8 60.2 53.1 60.2 53.4C60.2 56.7 60.2 60.1 60.2 63.4C60.2 63.9 60.5 64.8 60.8 64.9C61.3 65 61.9 64.7 62.5 64.4C62.8 64.3 63 63.9 63.4 63.6C64 64.1 64.6 64.5 65.2 65C63.6 68.1 60 68.9 57.3 68C55.8 67.5 55 66.3 54.9 64.8C54.8 61.3 54.8 57.8 54.8 54.4C54.7 53.7 54.7 53.1 54.7 52.4Z" fill="#0A1B2D"/>
<path d="M48.8 41.5C48.8 50.3 48.8 59 48.8 67.8C47.1 67.8 45.4 67.8 43.6 67.8C43.6 67.6 43.5 67.3 43.5 67C43.5 59.3 43.5 51.6 43.5 43.9C43.5 43.3 43.6 43 44.3 42.8C45.8 42.5 47.2 42 48.8 41.5Z" fill="#0A1B2D"/>
<path d="M105.9 29.4C106.8 29.9 107.4 30.7 108 31.4C109.1 32.7 110.3 34 112 34.5C112.3 34.6 112.6 34.9 112.7 35.2C113.1 36.2 113.6 37.2 114.5 38C114.2 38.4 113.8 38.7 113.5 39.1C113.3 39.4 113.1 39.7 113 40C112.8 40.4 112.7 40.9 112.6 41.3C112.5 41.5 112.4 41.8 112.4 42C112.4 43.2 112.5 44.4 113 45.5C113.2 45.9 113.2 46.5 113.4 46.9C113 47.1 112.7 47.3 112.5 47.6C111.9 48.7 111.5 49.7 112 51C112.1 51.3 112.2 51.7 112.2 52C112.2 52.2 112.1 52.3 112.1 52.4C111.2 52.4 110.3 52.3 109.5 52.4C108 52.6 106.5 52.8 105 53C103.8 53.2 103.4 52.9 102.9 51.9C102.6 51.3 102.3 50.7 101.9 50.1C101.4 49.4 100.9 49.2 100.1 49.7C99.6 50 99.2 50.4 98.9 50.8C98 51.7 97.1 52.3 95.8 52.4C94.9 52.5 94 52.9 93.5 53.7C93 54.4 92.6 55.2 92.2 56C92.3 56.5 92.8 56.5 93.2 56.6C93.8 56.7 94.5 56.7 95.1 56.7C96.9 56.5 98.7 56.3 100.5 56.1C101.3 56 102.1 56 102.9 56.2C104 56.5 105 57 106 57.4C106.2 57.5 106.4 57.6 106.6 57.8C106.4 58 106.3 58.1 106.1 58.2C105.1 58.8 104 59.4 103 59.9C102.4 60.2 101.8 60.2 101.2 59.7C101 59.5 100.7 59.4 100.5 59.2C100 58.8 99.4 58.7 98.8 59.1C98.1 59.6 97.3 60.2 96.7 60.8C95.5 62 94.1 62.9 92.5 63.4C91.5 63.7 91.4 64.3 92 65C91.8 65.3 91.7 65.5 91.5 65.8C91.7 66 91.9 66.1 92.1 66.2C91.9 66.4 91.8 66.6 91.7 66.8C91.9 67.2 92 67.6 92.2 68.2C92.4 68.2 92.8 68.3 93.1 68.2C94 67.9 95 67.6 95.9 67.2C97.1 66.6 98.2 65.9 99.4 65.2C100.4 64.6 101.5 64.2 102.7 64.2C103.4 64.2 104.1 64.2 104.9 64.2C109.5 64.4 114 63.9 118.5 63C120 62.7 121.1 62 121.9 60.6C122.1 60.3 122.2 60 122.4 59.7C123 58.7 123 58.7 124.1 58.5C124.2 58.1 124.4 57.7 124.5 57.3C125 55.4 125.7 53.5 126.4 51.7C127.1 50.1 127.5 48.4 127.6 46.7C127.7 44.9 128.1 43.2 128.9 41.6C129 41.4 129 41.2 129.1 41.1C129.4 39.9 129.2 38.8 128.8 37.7C128.7 37.4 128.5 37 128.7 36.7C129.1 36.1 128.8 35.7 128.4 35.3C127.9 34.8 127.7 34.2 127.7 33.5C127.7 33.4 127.7 33.2 127.7 33.1C127.2 30.3 126.3 27.7 124.7 25.4C123.2 23.4 121.7 21.4 120.2 19.5C119.6 18.7 119.1 17.9 119.3 16.9C119.3 16.7 119.3 16.4 119.3 16.2C119.3 15.8 119.2 15.4 118.8 15.2C118.4 15 118.4 14.6 118.4 14.2C118.4 13.4 118.3 12.6 118.2 11.8C118.1 11.2 117.9 10.6 117.8 10C117.5 8.8 117.3 7.6 118 6.5C118.1 6.4 118.1 6.3 118.1 6.2C118.1 5.4 118.6 4.9 119.1 4.3C119.4 4 119.7 3.6 120 3.3L119.9 3.2C119.4 3.6 118.9 3.9 118.3 4.3C118.6 3.3 119.2 2.6 119.4 1.7C119.3 1.7 119.3 1.6 119.2 1.6C118.7 2.2 118.1 2.9 117.6 3.5C117.5 3.5 117.5 3.4 117.4 3.4C117.7 2.4 118 1.5 118.3 0.500001C117.5 0.900001 117.3 1.8 116.8 2.5C116.5 1.5 117 0.600001 116.8 -0.299999C115.9 0.400001 116 1.6 115.6 2.5C115.2 2 115.2 1.3 114.4 1.3C114.4 1.6 114.4 1.8 114.5 2C114.7 3 115 3.9 115.2 4.9C115.3 5.5 115.5 6 115.5 6.6C115.5 8.4 115.3 10.2 114.7 11.9C114.4 12.7 114.3 13.4 114.6 14.2C114.8 14.8 114.6 15.3 114.1 15.6C113.8 15.8 113.4 16 113 16.2C112.8 16.3 112.5 16.2 112.1 16.3C112.3 15.7 112.5 15.2 112.7 14.8C113 14.1 112.9 13.5 112.2 13.1C111.8 12.9 111.4 12.7 111.3 12.3C111.1 11.9 110.9 11.6 110.7 11.1C110.1 10.9 109.7 11.5 109.1 11.4C109 11.3 109 11.2 108.9 11C108.2 11.1 107.7 11 107.3 10.3C106.9 9.5 105.7 9.4 104.9 10C104.1 10.5 103.3 11 102.4 11.5C102.3 11.6 102.2 11.8 102 12C101.8 12.3 101.7 12.5 101.6 12.8C101.3 13.5 101.1 14.2 100.8 15C100.4 16.3 100.5 17.5 101 18.8C101.1 18.9 101.2 19.1 101.3 19.2C102 20 102.9 20.4 104 20.4C104.6 20.4 105.2 20.5 105.9 20.6C105.8 20.8 105.7 20.9 105.7 21C104 22.6 102.4 24.4 100.4 25.6C100 25.8 99.6 26.1 99.7 26.7C99.9 27.4 99.5 27.7 99 28C97.9 28.8 96.6 29.3 95.3 29.8C94.2 30.2 93.1 30.7 92.2 31.4C89.5 33.5 86.7 35.2 83.6 36.7C83.3 36.9 82.9 36.9 82.5 36.9C81.5 36.9 80.4 36.9 79.4 36.9C79.3 37.5 79.4 37.7 79.9 37.9C80.2 38 80.5 38.1 80.6 38.4C78 40.6 77.9 40.8 77.9 41.6C78.6 41 79.3 40.5 79.9 40L80 40.1C79.7 41.2 78.6 41.8 78.4 43.1C79.5 42.5 79.9 41.3 80.9 40.9C80.7 41.4 80.4 41.8 80.2 42.3C79.9 42.8 79.6 43.2 79.6 43.9C80.3 43.2 80.9 42.6 81.6 41.9C81.5 42.5 81.5 43 81.4 43.5C81.5 43.5 81.5 43.5 81.6 43.6C81.8 43.3 82 43 82.2 42.7C83.5 40.3 85.1 38.4 87.8 37.4C90.6 36.4 93.3 35.2 96 34.1C96.8 33.8 97.6 33.3 98.3 32.7C99 32.2 99.6 31.8 100.5 31.6C102.4 31.3 104.2 30.5 105.8 29.4C105.5 29.6 105.7 29.5 105.9 29.4Z" fill="#0A1B2D"/>
<path d="M105.9 29.4C105.7 29.5 105.5 29.6 105.3 29.7C103.7 30.8 101.9 31.5 100 31.9C99.2 32 98.5 32.5 97.8 33C97.1 33.5 96.3 34 95.5 34.4C92.8 35.6 90.1 36.7 87.3 37.7C84.6 38.7 83 40.6 81.7 43C81.5 43.3 81.3 43.6 81.1 43.9C81 43.9 81 43.9 80.9 43.8C80.9 43.3 81 42.8 81.1 42.2C80.4 42.9 79.8 43.5 79.1 44.2C79 43.5 79.4 43 79.7 42.6C79.9 42.1 80.2 41.7 80.4 41.2C79.4 41.6 79 42.8 77.9 43.4C78.1 42.1 79.2 41.4 79.5 40.4L79.4 40.3C78.7 40.8 78.1 41.3 77.4 41.9C77.4 41 77.6 40.9 80.1 38.7C80 38.4 79.7 38.3 79.4 38.2C78.9 38.1 78.8 37.9 78.9 37.2C79.9 37.2 81 37.2 82 37.2C82.4 37.2 82.8 37.1 83.1 37C86.1 35.5 89 33.8 91.7 31.7C92.6 31 93.7 30.6 94.8 30.1C96.1 29.6 97.3 29.1 98.5 28.3C99 28 99.4 27.7 99.2 27C99 26.5 99.5 26.2 99.9 25.9C102 24.7 103.5 22.9 105.2 21.3C105.3 21.2 105.3 21.1 105.4 20.9C104.7 20.8 104.1 20.7 103.5 20.7C102.4 20.7 101.5 20.3 100.8 19.5C100.7 19.4 100.5 19.3 100.5 19.1C100 17.9 99.9 16.6 100.3 15.3C100.5 14.6 100.8 13.8 101.1 13.1C101.2 12.8 101.4 12.6 101.5 12.3C101.6 12.1 101.8 11.9 101.9 11.8C102.8 11.3 103.7 10.9 104.4 10.3C105.2 9.7 106.4 9.8 106.8 10.6C107.2 11.3 107.7 11.4 108.4 11.3C108.5 11.4 108.6 11.6 108.6 11.7C109.2 11.7 109.7 11.1 110.2 11.4C110.4 11.8 110.6 12.2 110.8 12.6C111 13 111.4 13.2 111.7 13.4C112.4 13.8 112.5 14.4 112.2 15.1C112 15.6 111.8 16 111.6 16.6C112 16.6 112.3 16.6 112.5 16.5C112.9 16.3 113.2 16.1 113.6 15.9C114.1 15.6 114.3 15.1 114.1 14.5C113.8 13.7 113.9 12.9 114.2 12.2C114.8 10.5 115 8.7 115 6.9C115 6.3 114.8 5.8 114.7 5.2C114.5 4.2 114.2 3.3 114 2.3C113.9 2.1 114 1.8 113.9 1.6C114.7 1.7 114.7 2.4 115.1 2.8C115.5 1.8 115.5 0.7 116.3 0C116.5 0.9 116 1.8 116.3 2.8C116.8 2.1 117 1.2 117.8 0.8C117.5 1.8 117.2 2.7 116.9 3.7C117 3.7 117 3.8 117.1 3.8C117.6 3.2 118.2 2.5 118.7 1.9C118.8 1.9 118.8 2 118.9 2C118.7 2.9 118.1 3.5 117.8 4.6C118.4 4.2 118.9 3.8 119.4 3.5L119.5 3.6C119.2 3.9 118.9 4.3 118.6 4.6C118.1 5.1 117.7 5.7 117.6 6.5C117.6 6.6 117.5 6.7 117.5 6.8C116.8 7.9 117 9.1 117.3 10.3C117.4 10.9 117.6 11.5 117.7 12.1C117.8 12.9 117.9 13.7 117.9 14.5C117.9 14.9 117.9 15.3 118.3 15.5C118.7 15.7 118.8 16.1 118.8 16.5C118.8 16.7 118.8 17 118.8 17.2C118.6 18.2 119.1 19.1 119.7 19.8C121.2 21.7 122.8 23.7 124.2 25.7C125.9 28 126.8 30.6 127.2 33.4C127.2 33.5 127.3 33.7 127.2 33.8C127.2 34.5 127.4 35.1 127.9 35.6C128.3 36 128.6 36.4 128.2 37C128.1 37.2 128.2 37.7 128.3 38C128.7 39.1 128.8 40.2 128.6 41.4C128.6 41.6 128.5 41.8 128.4 41.9C127.6 43.5 127.2 45.3 127.1 47C127 48.7 126.5 50.4 125.9 52C125.1 53.8 124.5 55.7 124 57.6C123.9 58 123.7 58.4 123.6 58.8C122.5 59.1 122.5 59.1 121.9 60C121.7 60.3 121.5 60.6 121.4 60.9C120.7 62.2 119.5 63 118 63.3C113.5 64.2 109 64.6 104.4 64.5C103.7 64.5 103 64.5 102.2 64.5C101 64.5 99.9 64.9 98.9 65.5C97.8 66.2 96.6 66.9 95.4 67.5C94.5 67.9 93.6 68.2 92.6 68.5C92.3 68.6 92 68.5 91.7 68.5C91.5 68 91.4 67.6 91.2 67.1C91.3 67 91.4 66.8 91.6 66.5C91.4 66.4 91.3 66.3 91 66.1C91.2 65.8 91.3 65.6 91.5 65.3C90.9 64.5 91.1 64 92 63.7C93.6 63.2 95 62.2 96.2 61.1C96.9 60.5 97.6 59.9 98.3 59.4C98.8 59 99.4 59.1 100 59.5C100.2 59.7 100.5 59.8 100.7 60C101.3 60.5 101.9 60.6 102.5 60.2C103.5 59.6 104.6 59.1 105.6 58.5C105.8 58.4 105.9 58.3 106.1 58.1C105.9 57.9 105.7 57.8 105.5 57.7C104.5 57.3 103.5 56.8 102.4 56.5C101.7 56.3 100.8 56.3 100 56.4C98.2 56.5 96.4 56.8 94.6 57C94 57.1 93.3 57 92.7 56.9C92.3 56.9 91.9 56.8 91.7 56.3C92.1 55.5 92.5 54.7 93 54C93.5 53.2 94.4 52.8 95.3 52.7C96.6 52.6 97.6 52 98.4 51.1C98.8 50.7 99.2 50.3 99.6 50C100.3 49.5 100.9 49.6 101.4 50.4C101.8 51 102.1 51.6 102.4 52.2C103 53.3 103.4 53.5 104.5 53.3C106 53.1 107.5 52.8 109 52.7C109.8 52.6 110.6 52.7 111.6 52.7C111.6 52.7 111.7 52.5 111.7 52.3C111.7 52 111.6 51.6 111.5 51.3C111 50.1 111.4 49 112 47.9C112.2 47.6 112.5 47.4 112.9 47.2C112.8 46.7 112.7 46.2 112.5 45.8C112 44.7 112 43.5 111.9 42.3C111.9 42.1 112 41.8 112.1 41.6C112.2 41.2 112.3 40.7 112.5 40.3C112.6 40 112.8 39.6 113 39.4C113.3 39 113.7 38.7 114 38.3C113.1 37.5 112.6 36.6 112.2 35.5C112.1 35.2 111.8 34.9 111.5 34.8C109.7 34.3 108.6 33 107.5 31.7C107.4 30.7 106.8 29.8 105.9 29.4Z" fill="#0A1B2D"/>
</g>
<defs>
<clipPath id="clip0_158_11">
<rect width="129" height="74.1" fill="white"/>
</clipPath>
</defs>
</svg>
