<svg width="151" height="35" viewBox="0 0 151 35" fill="none" xmlns="http://www.w3.org/2000/svg">
<path d="M63 2.7C63 2.2 62.5 1.8 61.9 1.8H56.8C56.2 1.8 55.7 2.2 55.7 2.7V2.8C55.7 3.3 56.2 3.7 56.8 3.7H61.3C62.5 3.7 63.5 4.1 64.2 4.7C64.3 4.7 64.3 4.8 64.3 4.8C64.9 5.3 65.2 6 65.2 6.7C65.2 8.4 63.4 9.7 61.3 9.7H57.4C55.2 9.7 53.5 8.3 53.5 6.7H55.7C55.7 7.4 56.5 8 57.4 8H61.3C62.2 8 63 7.4 63 6.7C63 6 62.2 5.4 61.3 5.4H56.8C55.9 5.4 55.1 5.1 54.5 4.7C54.3 4.6 54.2 4.4 54.1 4.3C53.7 3.9 53.5 3.4 53.5 2.8V2.6C53.5 1.2 55 0 56.8 0H61.9C63.8 0 65.3 1.2 65.3 2.6V2.7H63Z" fill="#0A1B2D"/>
<path d="M81.7 0V9.6H79.5V3.5L77.3 4.8L75.5 5.9L73.7 4.8L71.5 3.5V9.6H69.3V0L71.5 1.3L75.5 3.7L79.5 1.3L81.7 0Z" fill="#0A1B2D"/>
<path d="M97.6 9.7H95.1L94 7.9L91.3 3.8L88.6 7.9L87.5 9.6H85L86 7.9L91.2 0L96.4 7.9L97.6 9.7Z" fill="#0A1B2D"/>
<path d="M110.9 8L112 9.7H109.5L108.4 8L107.2 6.2L107.1 6.1C106.7 5.6 106 5.3 105.2 5.3H103V9.7H100.8V0.0999985H108.7C109.6 0.0999985 110.5 0.399998 111.1 0.899998C111.7 1.4 112.1 2 112.1 2.7C112.1 3.7 111.3 4.7 110.1 5.1C109.8 5.2 109.5 5.3 109.1 5.3L110.9 8ZM108.7 3.5C108.9 3.5 109 3.5 109.2 3.4C109.6 3.3 109.9 2.9 109.9 2.6C109.9 2.3 109.7 2.1 109.6 2C109.5 1.9 109.2 1.8 108.8 1.8H103V3.6L108.7 3.5Z" fill="#0A1B2D"/>
<path d="M127.8 0V1.7H122.7V9.6H120.5V1.8H115.4V0H127.8Z" fill="#0A1B2D"/>
<path d="M66 12.7V22.3H63.8V16.2L61.6 17.5L59.8 18.6L58 17.5L55.8 16.2V22.3H53.6V12.7L55.8 14L59.8 16.4L63.8 14L66 12.7Z" fill="#0A1B2D"/>
<path d="M72.1 15.3V16.2H80.1V17.9H72.1V19.7C72.1 20.2 72.6 20.6 73.2 20.6H82.3V22.3H73.2C71.3 22.3 69.8 21.1 69.8 19.7V15.3C69.8 13.9 71.3 12.7 73.2 12.7H82.3V14.4H73.2C72.6 14.4 72.1 14.8 72.1 15.3Z" fill="#0A1B2D"/>
<path d="M92.5 12.7C95.9 12.7 98.7 14.8 98.7 17.5C98.7 18.7 98.1 19.8 97.2 20.6C97.1 20.7 97 20.8 96.8 20.9C95.7 21.8 94.1 22.3 92.4 22.3H86.2V12.7H92.5ZM96.5 17.5C96.5 15.8 94.7 14.4 92.5 14.4H88.5V20.6H92.5C94.7 20.6 96.5 19.2 96.5 17.5Z" fill="#0A1B2D"/>
<path d="M102.7 22.3V12.7H104.9V22.3H102.7Z" fill="#0A1B2D"/>
<path d="M110.9 17.5C110.9 19.2 112.7 20.6 114.9 20.6H121.1V22.3H114.9C111.5 22.3 108.7 20.1 108.7 17.5C108.7 14.9 111.5 12.7 114.9 12.7H121.1V14.4H114.9C112.7 14.4 110.9 15.8 110.9 17.5Z" fill="#0A1B2D"/>
<path d="M137.1 22.3H134.6L133.5 20.6L130.8 16.5L128.1 20.6L127 22.3H124.5L125.6 20.6L130.8 12.7L136 20.6L137.1 22.3Z" fill="#0A1B2D"/>
<path d="M150.1 20.6V22.3H143.8C143.2 22.3 142.6 22.2 142.1 22C141.3 21.7 140.7 21.2 140.3 20.6C140 20.2 139.9 19.7 139.9 19.3V12.7H142.1V19.4C142.2 20 142.8 20.5 143.6 20.6H150.1Z" fill="#0A1B2D"/>
<path d="M65.1 25.2H63.7V31.7L53.5 25.6V33.9H54.8V27.5L65.1 33.6V25.2Z" fill="#0A1B2D"/>
<path d="M75.2 25.2C72 25.2 69.4 27.2 69.4 29.6C69.4 32 72 34 75.2 34C78.4 34 81 32 81 29.6C81 27.2 78.4 25.2 75.2 25.2ZM75.2 33.1C72.7 33.1 70.7 31.5 70.7 29.6C70.7 27.6 72.7 26.1 75.2 26.1C77.7 26.1 79.7 27.7 79.7 29.6C79.7 31.5 77.7 33.1 75.2 33.1Z" fill="#0A1B2D"/>
<path d="M92.5 29.5L93.3 29.4C93.6 29.4 93.9 29.3 94.1 29.2C95.1 28.8 95.8 28.1 95.8 27.3C95.8 26.8 95.5 26.2 95 25.8C94.4 25.4 93.7 25.1 92.9 25.1H85.5V33.8H86.8V29.4H89.5C90.4 29.4 91.3 29.8 91.7 30.4L94 33.8H95.4L94.7 32.8L92.5 29.5ZM86.7 28.7V26H92.8C93.4 26 93.7 26.2 93.9 26.3C94.1 26.4 94.4 26.8 94.4 27.3C94.4 27.8 94 28.3 93.4 28.5C93.2 28.6 93 28.6 92.8 28.6L86.7 28.7Z" fill="#0A1B2D"/>
<path d="M111.5 25.2H100V26H105.1V33.9H106.4V26H111.5V25.2Z" fill="#0A1B2D"/>
<path d="M116.4 31.8C116.4 33 117.7 33.9 119.3 33.9H128V33.1H119.3C118.4 33.1 117.7 32.5 117.7 31.8V29.5H125.7V28.7H117.7V27.4C117.7 26.7 118.4 26.1 119.3 26.1H128V25.3H119.3C117.7 25.3 116.4 26.3 116.4 27.4V31.8Z" fill="#0A1B2D"/>
<path d="M25.5 0.700001L33.7 8.9C34.7 9.9 34.7 11.5 33.7 12.4L25.5 20.6C24.5 21.6 22.9 21.6 22 20.6L13.8 12.4C12.8 11.4 12.8 9.8 13.8 8.9L22 0.700001C22.9 -0.199998 24.5 -0.199998 25.5 0.700001Z" fill="#0A1B2D"/>
<path d="M12.5 13.7L20.7 21.9C21.7 22.9 21.7 24.5 20.7 25.4L12.5 33.6C11.5 34.6 9.9 34.6 9 33.6L0.800003 25.4C-0.199997 24.4 -0.199997 22.8 0.800003 21.9L9 13.7C9.9 12.7 11.5 12.7 12.5 13.7Z" fill="#0A1B2D"/>
<path d="M38.4 13.7L46.6 21.9C47.6 22.9 47.6 24.5 46.6 25.4L38.4 33.6C37.4 34.6 35.8 34.6 34.9 33.6L26.7 25.4C25.7 24.4 25.7 22.8 26.7 21.9L34.9 13.7C35.9 12.7 37.5 12.7 38.4 13.7Z" fill="#0A1B2D"/>
</svg>
