<svg width="142" height="59" viewBox="0 0 142 59" fill="none" xmlns="http://www.w3.org/2000/svg">
<g clip-path="url(#clip0_159_104)">
<path d="M88.6 6.15627H87H85.3H75.3C73.8 6.15627 72.4 6.78233 71.3 7.9301C70.2 9.07788 69.6 10.5387 69.6 12.1038C69.6 13.669 70.2 15.1298 71.3 16.2776C72.4 17.4254 73.8 18.0514 75.3 18.0514H77.5C77.9 18.0514 78.3 18.2601 78.6 18.5731C78.9 18.8862 79.1 19.3035 79.1 19.7209C79.1 20.1383 78.9 20.5557 78.6 20.8687C78.3 21.1817 77.9 21.3904 77.5 21.3904H69.9L65.1 25.6685H77.1H77.4H81.1L90.6 21.5991L92.3 25.6685H96.8L88.6 6.15627ZM77.4 13.7733H75C74.2 13.5647 73.7 12.8342 73.7 12.1038C73.7 11.6865 73.9 11.2691 74.2 10.9561C74.5 10.643 74.9 10.4343 75.3 10.4343H82.1L84.3 8.55617L81.4 15.4428C80.3 14.3994 78.9 13.7733 77.4 13.7733ZM84 19.7209L86.9 12.8342L88.9 17.6341L84 19.7209Z" fill="#0A1B2D"/>
<path d="M113.8 18.0514C113.8 19.3035 113.1 20.4513 111.9 21.0774H111.8C110 21.8078 108.1 20.7644 107.5 18.7818C107.5 18.6775 107.5 18.5731 107.5 18.4688V11.6865H103.4V18.0514C103.4 20.034 104.2 21.9121 105.5 23.3729C106.9 24.8338 108.7 25.5642 110.6 25.5642C112.5 25.5642 114.3 24.7294 115.7 23.3729C117.1 21.9121 117.8 20.034 117.8 18.0514V11.8952H113.7V18.0514H113.8Z" fill="#0A1B2D"/>
<path d="M130.2 18.8862C131.2 18.2601 132 17.4254 132.6 16.2776C132.7 16.0689 132.9 15.7559 132.9 15.5472C133.9 12.8342 133.2 10.017 131.4 8.13879C130.2 6.88667 128.5 6.15627 126.8 6.15627H119H91L92.6 10.4343H98.2V25.5642H102.3V10.4343H119V25.5642H123.1V19.8253H126L129.5 25.5642H134.3L130.2 18.8862ZM128.6 14.8168C128.1 15.3385 127.5 15.5472 126.9 15.5472H123.1V10.4343H126.9C127.6 10.4343 128.2 10.7474 128.6 11.1648C129.1 11.6865 129.3 12.3125 129.3 12.9386C129.3 13.5647 129.1 14.2951 128.6 14.8168Z" fill="#0A1B2D"/>
<path d="M85.5 37.8767L78.2 29.1118H74.4V50.0849H78.8V36.9376L85.5 44.8677V50.0849H90V29.1118H85.5V37.8767Z" fill="#0A1B2D"/>
<path d="M135 29.0075C133.4 29.0075 131.9 29.0075 130.3 29.0075C129.4 30.677 128.5 32.3465 127.5 34.016V45.1807C128.4 46.8502 129.4 48.5197 130.3 50.1892C131.9 50.1892 133.5 50.1892 135.1 50.1892C137.1 46.6416 139 43.1982 140.9 39.7549C139 36.1029 137 32.5552 135 29.0075ZM132.7 45.9111C131.5 43.7199 130.3 41.7374 129.1 39.6505C130.2 37.668 131.4 35.5811 132.6 33.3899C133.8 35.5811 135 37.5637 136.1 39.6505C135.1 41.6331 134 43.7199 132.7 45.9111Z" fill="#0A1B2D"/>
<path d="M110.3 50.0849H112.1L110.3 45.7025V50.0849Z" fill="#0A1B2D"/>
<path d="M121.4 29.1118V37.8767L114.1 29.1118H110.3V34.1203L114.7 44.659V36.9376L121.4 44.8677V50.0849H125.9V29.1118H121.4Z" fill="#0A1B2D"/>
<path d="M106.3 29.1118H102.6L98.2 39.5462V50.0849L108.3 45.7025L110.1 50.0849H115L106.3 29.1118ZM101.4 43.7199L104.5 36.3115L106.6 41.4244L101.4 43.7199Z" fill="#0A1B2D"/>
<path d="M96.3 29.1118H91.9V50.0849H96.3V29.1118Z" fill="#0A1B2D"/>
<path d="M69.9 42.4678C69.7 41.8418 69.4 41.2157 69 40.7983C68.7 40.2766 68.3 39.8592 67.9 39.4419C67.5 39.0245 67.1 38.6071 66.7 38.1897C65.8 37.355 64.9 36.7289 64 35.9985C63.6 35.6855 63.2 35.4768 62.8 35.1638C65.4 22.2252 59.2 8.24314 46.7 2.50424C33.7 -3.44334 19.5 1.77384 12.3 12.8343C10.8 12.4169 9.2 12.1038 7.6 11.8952C6.4 11.7908 5.1 11.6865 3.8 11.7908C3.2 11.8952 2.5 11.9995 1.8 12.3125C1.5 12.4169 1.1 12.6256 0.8 12.9386C0.5 13.2516 0.2 13.5647 0.1 13.982C0 14.3994 0 14.8168 0 15.2342C0 15.6515 0.2 15.9646 0.3 16.3819C0.4 16.695 0.6 17.008 0.8 17.321C1 17.6341 1.2 17.8427 1.4 18.1558C2.2 19.1992 3.2 20.1383 4.1 20.8687C5.3 21.9121 6.6 22.8512 8 23.686C5.6 36.6246 11.9 50.3979 24.3 55.9281C36.9 61.667 50.8 56.8672 58.1 46.2242C59.7 46.5372 61.4 46.7459 63.1 46.8502C63.7 46.8502 64.3 46.8502 64.8 46.8502C65.4 46.8502 66 46.7459 66.6 46.6416C67.2 46.5372 67.8 46.3285 68.4 46.0155C68.7 45.9112 69 45.7025 69.2 45.3894C69.5 45.1807 69.7 44.8677 69.9 44.4503C70.1 44.1373 70.1 43.7199 70.1 43.3026C70.1 43.1982 70 42.8852 69.9 42.4678ZM57.8 24.4164C59.1 23.4773 60.2 23.8947 60.8 25.4598C61 25.8772 61.1 26.2946 61.1 26.7119C61.2 27.7554 61.2 28.7988 61.2 29.9466C61.2 30.1553 61.1 30.364 61 30.5727C61 30.5727 61 30.5727 60.9 30.5727C60.4 30.1553 59.9 29.7379 59.4 29.3205C58.3 28.4858 57 28.1728 55.6 28.2771C55.4 28.2771 55.2 28.2771 54.9 28.2771C55.8 26.7119 56.5 25.2511 57.8 24.4164ZM49.4 14.6081C49.6 13.982 50.3 13.7733 50.8 14.0864C51.4 14.3994 51.6 14.9211 51.3 15.5472C51 16.1732 50.4 16.3819 49.9 16.0689C49.4 15.7559 49.2 15.1298 49.4 14.6081ZM50.2 20.973C52 20.1383 53 20.8687 52.7 22.9556C52.6 24.1034 52.2 25.1468 51.9 26.3989C50.4 25.1468 49 23.999 47.6 22.8512C48.4 22.0165 49.2 21.3904 50.2 20.973ZM46.9 24.4164C50.2 26.9206 53 29.7379 55.5 33.1812C52.8 34.9551 50 36.4159 47.1 37.4593C46.5 36.7289 46.5 35.8942 46.5 35.2681C47.6 34.7464 48.7 34.2247 49.8 33.703C50.4 33.3899 51 33.1812 51.6 32.7639C52.4 32.2421 52.5 31.8248 51.9 30.99C50.4 28.7988 48.9 27.338 46.5 25.5642C45.4 25.5642 44.3 26.0859 43.2 26.5033C43 26.2946 42.9 26.0859 42.6 25.7729C44.1 25.2511 45.5 24.8338 46.9 24.4164ZM44.4 27.8597C44.9 27.651 45.5 27.4423 46.1 27.338C47.7 28.5901 49.1 29.8422 50.2 31.6161C48.9 32.3465 47.6 32.7639 46.4 33.2856C45.7 31.4074 45.1 29.7379 44.4 27.8597ZM45.4 40.2766C45.3 40.5896 45.2 40.7983 45.1 41.1114C44.8 41.8418 44.4 42.4678 43.8 42.8852C43.2 43.3026 42.8 43.0939 42.5 42.4678C42.4 42.2591 42.3 41.9461 42.3 41.7374C42.1 40.3809 42.5 39.1288 43.2 37.981C43.3 37.7724 43.6 37.5637 43.8 37.355C44.5 36.8333 45 36.9376 45.3 37.7724C45.7 38.7115 45.6 39.4419 45.4 40.2766ZM47.4 39.3375C49.8 38.1897 52.4 36.9376 55 35.6855C54.5 37.042 53.9 38.2941 53.1 39.4419C53 39.6505 52.8 39.7549 52.6 39.8592C50.6 41.2157 48.5 42.2591 46.4 43.1982C46.3 43.1982 46.2 43.1982 46.2 43.1982C46.5 41.9461 47 40.5896 47.4 39.3375ZM44.2 6.57364C43.6 8.13879 44.5 10.5387 46 11.2691C44.5 10.643 42.2 11.5821 41.5 13.1473C42.1 11.5821 41.2 9.18223 39.7 8.45183C41.2 9.07789 43.6 8.03445 44.2 6.57364ZM34.9 16.1732C35.3 15.1298 36.4 14.7124 37.4 15.1298C38.4 15.5472 38.8 16.695 38.4 17.7384C38 18.7818 36.9 19.1992 35.9 18.7818C35 18.3645 34.5 17.2167 34.9 16.1732ZM27 8.03445C27.3 7.30405 27.9 6.99102 28.6 7.30405C29.3 7.61708 29.7 8.34748 29.4 9.07789C29.1 9.80829 28.3 10.1213 27.7 9.80829C27.1 9.49526 26.7 8.76486 27 8.03445ZM26.9 15.4428C27.1 14.9211 27.7 14.7124 28.2 14.9211C28.7 15.1298 28.9 15.6515 28.7 16.2776C28.5 16.7993 27.9 17.008 27.4 16.7993C26.9 16.4863 26.7 15.8602 26.9 15.4428ZM26.1 24.4164C26.2 24.4164 26.3 24.312 26.3 24.312C26.8 23.8947 27.4 23.5816 28 23.3729C28.4 23.2686 28.7 23.1643 29.1 23.0599C32.2 22.1208 35.2 22.6425 38 24.2077C41.9 26.5033 44.2 29.9466 44.8 34.6421C44.8 34.8507 44.8 35.0594 44.9 35.3725C43.6 35.3725 42.7 36.1029 41.8 37.1463C41.8 36.8333 41.8 36.6246 41.8 36.4159C41.6 31.6161 39.5 28.1728 35.6 25.6685C33.4 24.312 31.1 23.686 28.5 23.8947C27.8 23.999 27.1 24.2077 26.4 24.312C26.3 24.4164 26.2 24.4164 26.1 24.4164C26 24.5207 26.1 24.5207 26.1 24.4164C26.1 24.4164 26 24.5207 26.1 24.4164ZM35.3 34.329L34.4 36.6246C34.2 37.2506 33.5 37.4593 32.9 37.2506C32.3 37.042 32.1 36.3116 32.3 35.6855L33.2 33.3899C33.4 32.7639 34.1 32.5552 34.7 32.7639C35.3 32.9726 35.6 33.703 35.3 34.329ZM31.4 25.7729C31.5 25.7729 31.6 25.8772 31.8 25.8772C31.5 25.9815 31.4 26.0859 31.2 26.1902C27.6 27.4423 25.5 30.1553 24.8 34.016C24.4 36.3115 25.2 38.2941 26.7 40.0679C27.3 40.694 27.9 41.2157 28.5 41.8418C26.5 41.007 24.7 39.9636 23.3 38.3984C21.4 36.3115 20.9 33.9116 21.9 31.1987C23.4 27.1293 27.3 24.8338 31.4 25.7729ZM29.8 31.9291L28.9 34.2247C28.7 34.8507 28 35.0594 27.4 34.8507C26.8 34.6421 26.6 33.9116 26.8 33.2856L27.7 30.99C27.9 30.364 28.6 30.1553 29.2 30.364C29.7 30.677 30 31.3031 29.8 31.9291ZM20.8 11.8952C19.8 14.2951 21.3 18.0514 23.6 19.0949C21.3 18.0514 17.7 19.6166 16.7 22.0165C17.6 19.7209 16.3 16.0689 14.1 14.9211C16.4 15.7559 19.9 14.2951 20.8 11.8952ZM13.9 14.8168C13.9 14.8168 14 14.8168 13.9 14.8168C14 14.8168 14 14.9211 13.9 14.8168C13.9 14.8168 14 14.8168 13.9 14.8168ZM12.6 25.8772C12.9 25.2511 13.5 25.0424 14.1 25.2511C14.7 25.5642 15 26.2946 14.7 26.9206C14.4 27.5467 13.7 27.7554 13.2 27.5467C12.5 27.2337 12.3 26.5033 12.6 25.8772ZM7.6 22.6425C7.1 22.2252 6.7 21.8078 6.2 21.3904C5.7 20.973 5.3 20.5557 4.9 20.1383C4 19.3036 3.2 18.3645 2.5 17.321C2.2 16.7993 1.9 16.2776 1.7 15.8602C1.6 15.6515 1.5 15.3385 1.5 15.1298C1.5 14.9211 1.5 14.7124 1.6 14.5037C1.7 14.2951 1.8 14.1907 1.9 13.982C2 13.8777 2.2 13.669 2.4 13.5647C2.9 13.356 3.4 13.2516 4 13.1473C4.6 13.0429 5.2 13.0429 5.8 12.9386C6.4 12.9386 7 12.9386 7.6 12.9386C9.1 12.9386 10.6 13.1473 12 13.2516C11.2 14.5037 10.5 15.8602 9.9 17.321C9.1 19.1992 8.5 21.0774 8.1 23.0599C7.9 22.9556 7.7 22.7469 7.6 22.6425ZM21.5 43.9286C19.2 43.7199 16.8 43.4069 14.7 42.3635C14 41.9461 13.2 41.4244 12.7 40.9027C11.8 39.9636 12 38.9201 13.3 38.3984C13.7 38.1897 14.1 38.1897 14.5 38.0854C15.8 37.8767 17.1 37.7724 18.5 37.668C19.5 40.0679 19.2 40.2766 22.6 43.9286C22.1 43.9286 21.8 43.9286 21.5 43.9286ZM35.4 55.9281C34.2 55.8238 33.1 55.7194 32 55.6151C29.9 55.3021 27.8 54.7804 25.8 53.8413C24.8 53.4239 23.9 52.7978 23.2 51.9631C22.8 51.4414 22.3 50.9196 22.6 50.1892C22.9 49.4588 23.6 49.2501 24.2 49.2501C24.7 49.2501 25.2 49.2501 25.6 49.2501C28 49.4588 30.3 49.4588 32.7 48.8328C32.9 48.7284 33.1 48.7284 33.3 48.8328C34.2 48.9371 35 48.9371 36 49.0415C35.5 51.337 35 53.5282 35.4 55.9281ZM32.8 47.0589C29.3 46.3285 26.1 44.659 23.3 42.2591C21.4 40.5896 20 38.5028 19.8 35.7898C19.8 35.6855 19.8 35.5811 19.8 35.4768C19.8 35.4768 19.8 35.4768 19.8 35.3725C19.9 35.4768 20 35.5811 20.1 35.7898C20.6 37.4593 21.5 38.8158 22.7 39.9636C25.7 42.6765 29.2 44.4503 33.2 44.9721C34.8 45.1807 36.3 44.9721 37.8 44.2417C38.8 43.7199 39.6 43.0939 40.2 42.1548C40.3 41.9461 40.5 41.8418 40.7 41.6331C40.9 42.8852 41.3 43.9286 42.4 44.659C41.3 46.0155 40 46.7459 38.4 47.1633C36.5 47.5807 34.6 47.4763 32.8 47.0589ZM39.2 55.6151C38.8 55.7194 38.5 55.7194 38.1 55.8238C37.8 55.8238 37.4 55.8238 37.1 55.9281C36.5 53.5282 37.2 51.337 38 49.0415C38.7 48.8328 39.3 48.6241 40.1 48.4154C39.1 50.711 38.7 53.1109 39.2 55.6151ZM47 53.0065C46.4 51.337 46.8 50.0849 48.2 49.2501C49.6 48.3111 51.1 47.372 52.5 46.5372C52.8 46.3285 53.2 46.1198 53.5 46.0155C54.1 45.8068 54.4 45.9112 55 46.4329C54.4 48.1024 49.5 52.0674 47 53.0065ZM57.7 42.4678C57.2 43.3026 56.6 44.1373 56.1 44.8677C54.6 43.6156 53.1 44.033 51.6 45.0764C50.3 45.9112 49 46.8502 47.7 47.5807C45.7 48.7284 45 50.2936 45.3 52.6935C45.3 53.0065 45.4 53.4239 45.5 53.8413C44.1 54.4673 42.6 54.989 41 55.3021C40.6 53.7369 40.7 52.3805 41.1 50.9196C41.5 49.2501 42.3 47.7893 43.4 46.5372C43.8 46.1198 44.2 45.8068 44.7 45.5981C47.9 44.5547 50.8 42.9895 53.6 41.1114C54 40.7983 54.4 40.3809 54.7 39.8592C56 37.7724 56.9 35.5811 57.6 33.0769C56.9 32.0335 56.1 30.99 55.4 29.9466C56.9 29.3205 59.4 30.2596 60.3 32.2421C60.8 33.2856 61 34.4334 60.7 35.5811C60.5 36.6246 60.2 37.5637 59.8 38.5028C59.6 38.9201 59.4 39.3375 59.2 39.8592C58.7 40.7983 58.2 41.6331 57.7 42.4678ZM68.7 44.1373C68.6 44.346 68.5 44.4503 68.3 44.5547C68.1 44.659 68 44.7634 67.7 44.8677C67.3 45.0764 66.8 45.1808 66.3 45.2851C65.3 45.4938 64.2 45.4938 63.1 45.3894C61.7 45.2851 60.3 45.1807 58.9 44.9721C59.8 43.5112 60.5 42.0504 61.2 40.4853C61.9 38.8158 62.4 37.1463 62.8 35.4768C63.1 35.7898 63.4 35.9985 63.8 36.3115C64.2 36.7289 64.6 37.042 65 37.4593C65.4 37.8767 65.8 38.2941 66.2 38.7114C67 39.5462 67.7 40.3809 68.2 41.32C68.5 41.7374 68.7 42.2591 68.8 42.7808C68.9 43.3026 68.9 43.8243 68.7 44.1373Z" fill="#0A1B2D"/>
<path d="M138.6 11.9995L136.1 10.5387V7.51273L138.6 6.05193L141.1 7.51273V10.5387L138.6 11.9995ZM136.6 10.2257L138.6 11.3734L140.6 10.2257V7.82577L138.6 6.67799L136.6 7.82577V10.2257Z" fill="#0A1B2D"/>
<path d="M139.3 7.82576C139.4 7.93011 139.5 8.13879 139.5 8.45183C139.5 8.66051 139.5 8.8692 139.4 8.97354C139.3 9.07789 139.2 9.18223 139 9.18223L139.5 10.017V10.1213H139.1C139 10.1213 139 10.1213 139 10.017L138.5 9.18223H138.2V10.017V10.1213H137.8C137.8 10.1213 137.8 10.1213 137.8 10.017V7.72142C138.1 7.72142 138.3 7.72142 138.6 7.72142C138.9 7.72142 139.1 7.72142 139.3 7.82576ZM138.1 8.13879V8.97354H138.4C138.6 8.97354 138.7 8.97354 138.8 8.8692C138.9 8.8692 138.9 8.76486 138.9 8.55617C138.9 8.34748 138.9 8.24314 138.8 8.24314C138.7 8.13879 138.6 8.13879 138.4 8.13879H138.1Z" fill="#0A1B2D"/>
</g>
<defs>
<clipPath id="clip0_159_104">
<rect width="141.1" height="58.4324" fill="white"/>
</clipPath>
</defs>
</svg>
